<svg xmlns="http://www.w3.org/2000/svg" width="100" height="100" viewBox="0 0 100 100">
    <path fill="#FFF" fill-rule="nonzero" d="M35.219 0c7.012 0 12.88 5.114 13.626 11.912l.038.32c.26 1.985.836 3.222 1.996 4.383 1.22 1.223 2.523 1.797 4.693 2.037l.365.045c3.394.47 6.436 2.245 8.586 5.012.153.198.301.4.444.605L65.15 24a1.456 1.456 0 0 1 2.024-.492c3.004 1.876 5.427 3.878 7.258 6.007.125-2.028.59-3.914 1.402-5.653 2.263-4.854 7.126-8.38 14.476-10.626a1.456 1.456 0 0 1 1.766.823c3.005 7.074 3.43 13.066 1.166 17.92-.81 1.738-1.954 3.305-3.425 4.705 2.783.043 5.844.612 9.176 1.695.709.23 1.13.959.974 1.688-1.596 7.518-4.685 12.67-9.323 15.348-.323.186-.653.36-.99.522.88.517 1.77 1.092 2.673 1.724.61.427.8 1.247.438 1.898-3.21 5.794-6.966 9.584-11.284 11.291.145.136.292.276.438.417a1.456 1.456 0 0 1-.002 2.097c-4.926 4.738-8.974 7.723-12.257 8.939.095.112.188.227.282.342.469.58.425 1.42-.102 1.946-4.985 4.987-9.938 7.62-14.852 7.804.086.15.172.305.259.46.39.706.134 1.594-.573 1.983C48.423 98.272 43.9 100 40.933 100c-1.178 0-2.305-.125-3.41-.38-5.219-1.205-9.679-5.229-13.404-11.951l.142.252c-6.346 2.133-13.848 3.367-22.731 3.817a1.456 1.456 0 0 1-.147-2.91c8.561-.433 15.757-1.608 21.792-3.615-1.247-4.852-1.45-9.081-.581-12.67-2.072.683-4.148 1.085-6.195 1.195l-.598.024-.45.006c-7.812 0-14.247-5.014-15.218-11.988a14.074 14.074 0 0 1 2.808-10.524c2.15-2.767 5.192-4.542 8.586-5.012l.365-.045c2.17-.24 3.473-.814 4.693-2.037 1.16-1.161 1.736-2.398 1.996-4.383l.038-.32c.492-4.482 3.21-8.232 7.015-10.267-2.696-4.346-4.183-8.894-4.31-13.305-.23-8.08 4.774-14.748 11.962-15.752C33.925.045 34.575 0 35.22 0zm4.092 83.465c-2.046-.137-4.232.231-6.56 1.116-.275.118-.557.232-.844.342-1.447.617-2.947 1.429-4.5 2.437l-.075.05.305.504c3.043 4.912 6.462 7.816 10.241 8.794l.3.074c.887.205 1.795.305 2.755.305 1.971 0 5.265-1.143 9.777-3.443l.86-.445.393-.207-.213-.35c-.179-.289-.359-.571-.54-.846l-.034-.033a1.464 1.464 0 0 1-.285-.441c-2.91-4.256-6.149-6.76-9.702-7.58a11.836 11.836 0 0 0-1.664-.26c-.049.001-.097-.001-.145-.006zm13.297-7.298l-.257.033c-.048.009-.097.016-.146.02-3.077.434-6.265 2.053-9.567 4.893 3.931 1.14 7.42 3.925 10.476 8.303.234.029.467.048.7.06 3.997.21 8.187-1.633 12.579-5.62l.432-.398-.06-.07a36.016 36.016 0 0 0-.803-.894.938.938 0 0 1-.089-.091c-3.663-3.913-7.347-5.978-11.05-6.27l-.308-.021a11.875 11.875 0 0 0-1.907.055zM39.591 62.353l-.088.017c-6.074 1.181-10.188 3.521-12.428 6.97-.251.388-.48.79-.687 1.21a1.26 1.26 0 0 1-.088.188c-1.554 3.287-1.75 7.54-.539 12.791l.022.087.577-.114c1.633-.34 3.12-.768 4.462-1.28.28-.121.559-.234.837-.341 2.881-1.235 5.03-2.904 6.468-4.995l.172-.256c2.24-3.45 2.704-8.16 1.313-14.189l-.02-.088zm26.528 4.292l-.308.017c-3.818.267-7.582 2.419-11.291 6.534l.148.007c4.462.234 8.745 2.492 12.85 6.703 2.479-.511 6.053-2.828 10.595-6.968l.668-.616-.268-.236c-4.357-3.825-8.485-5.611-12.394-5.441zM49.273 55.393l-.41.205a85.797 85.797 0 0 0-.827.418c-2.651 1.356-4.737 2.606-6.248 3.733.135.157.236.347.293.559 1.99 7.423 1.578 13.416-1.34 17.908l.174-.272c4.765-2.09 7.872-4.803 9.383-8.116l.125-.283c1.567-3.691 1.263-8.27-.993-13.776l-.157-.376zM32.245 30.46c-5.448 0-9.99 3.876-10.697 9.044l-.034.273c-.308 2.803-1.154 4.726-2.868 6.443-1.714 1.717-3.635 2.565-6.435 2.874-2.752.303-5.223 1.701-6.97 3.95a11.161 11.161 0 0 0-2.223 8.334c.748 5.372 5.741 9.342 11.98 9.474l.78-.003c2.665-.077 5.426-.733 8.18-1.944.208-.395.432-.778.674-1.15 2.228-3.43 5.847-5.882 10.813-7.385l-.262.29c5.051-5.453 7.88-11.578 8.045-17.31.19-6.662-3.812-11.996-9.454-12.784-.505-.07-1.02-.106-1.529-.106zm25.848 16.293l-.334.225c-2.967 2.008-5.236 3.806-6.8 5.365.147.126.268.285.355.472 2.997 6.423 3.768 12.004 2.228 16.7 2.95-1.905 5.056-4.014 6.342-6.323.024-.056.053-.11.086-.161.368-.68.664-1.378.89-2.092l.089-.296c1.105-3.855.246-8.362-2.665-13.552l-.191-.338zm17.906 8.815l-.302.065c-3.702.855-7.062 3.536-10.066 8.121l-.023.003c4.368-.306 8.802 1.339 13.295 4.867l-.196.049c4.008-.926 7.614-3.991 10.801-9.294l.046-.079-.075-.049a30.887 30.887 0 0 0-3.883-2.164 1.426 1.426 0 0 1-.465-.207c-3.322-1.448-6.363-1.875-9.132-1.312zm-11.04-18.393l-.322.3a70.62 70.62 0 0 0-2.838 2.8c-1.066 1.116-1.958 2.146-2.678 3.085.27.11.507.303.673.569 3.796 6.073 5.233 11.568 4.217 16.455 3.453-3.09 5.402-6.302 5.9-9.63l.042-.305c.489-3.98-1.065-8.298-4.751-12.969l-.244-.305zM46 45.34l-.038.315c-.442 3.404-1.663 6.852-3.585 10.184a58.583 58.583 0 0 1 3.888-2.19c1.17-2.183 3.704-4.664 7.623-7.516-.582.058-1.173.088-1.77.088l-.449-.006-.625-.025a23.512 23.512 0 0 1-5.044-.85zm38.346-4.902l-.176.069a31.298 31.298 0 0 1-1.405.645l-.269.15c-3.452 1.994-5.956 5.8-7.47 11.497l.015-.004c3.453-.797 7.15-.34 11.08 1.34a12.133 12.133 0 0 0 3.066-1.243c3.466-2 5.976-5.828 7.488-11.563l.145-.57-.086-.026c-4.97-1.424-9.09-1.506-12.388-.295zm-59.84-1.824l.14.009c.8.088 1.377.807 1.289 1.607-.42 3.816-1.71 6.665-4.15 9.103-2.437 2.439-5.286 3.73-9.103 4.15a1.456 1.456 0 0 1-.318-2.895c3.18-.35 5.41-1.36 7.362-3.314 1.953-1.953 2.964-4.184 3.314-7.363a1.456 1.456 0 0 1 1.467-1.297zm42.384-11.817l-.209.369-.486.871c-1.51 2.747-2.59 5.096-3.244 7.027.38-.352.77-.709 1.174-1.07a1.456 1.456 0 0 1 2.072.127c4.457 5.125 6.737 10.069 6.756 14.818 2.256-3.839 3.118-7.372 2.635-10.61l-.05-.305c-.696-3.949-3.444-7.624-8.334-11.012l-.314-.215zM35.22 2.913c-.51 0-1.024.036-1.53.106-5.641.788-9.644 6.121-9.453 12.785.115 4.012 1.535 8.22 4.143 12.28l.124-.036a14.125 14.125 0 0 1 5.675-.366c6.862.958 11.733 7.078 11.96 14.66 1.877.586 3.738.908 5.555.96l.46.006c1.29 0 2.569-.17 3.783-.5.842-1.258 1.96-2.629 3.352-4.12.033-2.766 1.385-6.556 4.032-11.463a10.813 10.813 0 0 0-1.097-1.729c-1.747-2.248-4.218-3.646-6.97-3.95-2.8-.308-4.721-1.156-6.436-2.873-1.714-1.717-2.56-3.64-2.867-6.443l-.034-.273c-.708-5.168-5.249-9.044-10.697-9.044zM89.896 16.43l-.085.029c-5.85 2.015-9.598 4.905-11.337 8.633-1.738 3.727-1.542 8.457.674 14.233l.033.083.556-.193c.617-.222 1.21-.454 1.778-.696.487-.26.99-.49 1.507-.695 3.614-1.794 6.084-4.066 7.447-6.799l.134-.278c1.738-3.727 1.543-8.456-.674-14.233l-.033-.084zM32.38 32.054a1.456 1.456 0 0 1 0 2.913 6.47 6.47 0 0 0-4.259 1.604 1.456 1.456 0 1 1-1.917-2.192 9.383 9.383 0 0 1 6.176-2.325zm10.59-20.987a1.456 1.456 0 0 1 1.467 1.297c.35 3.18 1.361 5.41 3.314 7.363 1.953 1.953 4.183 2.964 7.362 3.314a1.456 1.456 0 0 1-.318 2.895c-3.817-.42-6.665-1.711-9.104-4.15-2.438-2.438-3.729-5.287-4.149-9.103a1.456 1.456 0 0 1 1.289-1.607zm-7.872-6.56c2.269 0 4.462.826 6.176 2.325a1.456 1.456 0 0 1-1.917 2.192 6.47 6.47 0 0 0-4.259-1.604 1.456 1.456 0 0 1 0-2.913z"/>
</svg>
