<svg xmlns="http://www.w3.org/2000/svg" width="60" height="60" viewBox="0 0 60 60">
    <path fill="#129D51" fill-rule="nonzero" d="M52.866.07a1.541 1.541 0 0 1 1.88.873c2.085 4.945 2.383 9.166.778 12.608a10.761 10.761 0 0 1-1.591 2.46c1.548.148 3.213.516 5.002 1.098a1.541 1.541 0 0 1 1.031 1.786c-1.109 5.223-3.107 8.74-6.257 10.638.335.213.672.439 1.012.677.646.452.846 1.32.464 2.01-2.048 3.694-4.436 6.235-7.178 7.557.36.599.276 1.392-.254 1.9-3.061 2.946-5.64 4.914-7.821 5.893a1.538 1.538 0 0 1-.33 1.686c-3.192 3.193-6.395 5.01-9.601 5.374a1.537 1.537 0 0 1-.742 1.626C24.949 58.744 21.82 60 19.678 60c-4.786 0-8.66-2.814-11.546-8.206a43.81 43.81 0 0 1-6.331 1.55 1.541 1.541 0 0 1-.519-3.04 40.843 40.843 0 0 0 5.731-1.388c-1.14-4.786-.776-8.718 1.182-11.734 1.756-2.704 4.707-4.537 8.783-5.539 1.118-1.281 3.072-2.629 5.895-4.104.884-1.55 2.664-3.26 5.36-5.208.015-.047.03-.093.047-.14.562-1.466 1.663-3.212 3.308-5.267l.005-.03c.312-2.272 1.638-5.327 3.966-9.254a1.541 1.541 0 0 1 2.143-.522c1.647 1.03 3.047 2.117 4.193 3.265.16-.979.447-1.908.857-2.788 1.603-3.439 5.013-5.93 10.114-7.524zm-34.34 48.585c-1.289-.083-2.673.15-4.157.711a15.59 15.59 0 0 1-.603.245 18.57 18.57 0 0 0-2.333 1.216l-.232.144.05.088c2.25 3.869 4.954 5.76 8.172 5.854l.255.004c1.156 0 3.165-.717 5.924-2.163l.757-.405-.176-.269a1.55 1.55 0 0 1-.27-.403c-1.882-2.738-3.949-4.33-6.188-4.847a7.428 7.428 0 0 0-1.024-.162 1.07 1.07 0 0 1-.127-.005zm9.202-4.942l-.262.032c-.033.005-.066.01-.098.013-1.732.245-3.535 1.086-5.413 2.55 2.33.926 4.415 2.7 6.261 5.283.065.007.129.01.193.014 2.454.129 5.057-.978 7.82-3.407l.16-.144-.145-.159-.056-.059a1.55 1.55 0 0 1-.06-.063l.116.122c-2.404-2.608-4.79-3.977-7.157-4.187l-.263-.019a7.44 7.44 0 0 0-1.096.024zm-9.385-9.221l-.21.046c-3.588.807-6.014 2.263-7.352 4.323-1.338 2.061-1.682 4.87-.96 8.475l.045.21.21-.044c.918-.207 1.76-.455 2.527-.746.2-.086.398-.166.596-.243 1.822-.781 3.176-1.824 4.082-3.116l.148-.218c1.338-2.061 1.681-4.87.959-8.476l-.045-.211zm18.444 2.798l-.263.014c-2.162.151-4.322 1.27-6.479 3.416 2.703.418 5.292 1.887 7.769 4.36 1.473-.414 3.587-1.8 6.242-4.175l.356-.322-.011-.009c-2.703-2.295-5.239-3.364-7.614-3.284zm-11.765-7.388l-.727.374c-1.354.709-2.465 1.37-3.325 1.97l.02.064c1.147 4.275 1.143 7.899-.071 10.828 2.24-1.222 3.744-2.7 4.548-4.42l.108-.24c.925-2.181.82-4.886-.389-8.148l-.164-.428zm18.526-.117l-.258.054c-1.209.28-2.367.872-3.474 1.788a18.91 18.91 0 0 1-2.023 2.604c2.54.177 5.095 1.268 7.658 3.23 2.249-.643 4.32-2.397 6.199-5.328l.115-.183-.183-.113a19.413 19.413 0 0 0-1.927-1.036 1.455 1.455 0 0 1-.388-.173c-2.095-.905-3.999-1.176-5.72-.843zm-12.469-5.687l-.041.03c-1.623 1.115-2.91 2.125-3.854 3.01a.07.07 0 0 1 .011.018c1.776 3.808 2.43 7.217 1.904 10.2 1.794-1.39 2.946-2.917 3.487-4.576l.078-.252c.653-2.278.218-4.95-1.379-8.04l-.206-.39zm3.967-6.513l-.056.066c-.975 1.14-1.776 2.172-2.405 3.088.118.098.222.217.307.354 2.243 3.588 3.307 6.914 3.13 9.958.459-.53.933-1.012 1.42-1.448.38-.639.675-1.273.89-1.903a1.506 1.506 0 0 1 .245-.89c.095-.416.15-.824.172-1.23l.01-.263c.041-2.37-1.07-4.838-3.413-7.41l-.3-.322zm14.228 1.939l-.142.054c-.3.148-.61.29-.93.428l-.165.09c-2.017 1.165-3.542 3.334-4.542 6.573 2.14-.302 4.391.048 6.75 1.026a7.537 7.537 0 0 0 1.756-.733c2.08-1.202 3.583-3.51 4.57-7.133l.051-.192-.206-.054c-2.884-.743-5.222-.75-7.142-.06zM37.399 10.62l-.045.081a38.778 38.778 0 0 0-1.65 3.285c.113.06.218.135.316.226 3.086 2.876 4.972 5.804 5.594 8.78.857-1.88 1.16-3.624.936-5.237l-.041-.26c-.412-2.334-1.974-4.545-4.764-6.622l-.346-.253zm15.027-7.143l-.193.073c-3.444 1.323-5.647 3.117-6.687 5.347-1.038 2.227-.987 5.056.23 8.526l.073.202.202-.074c.274-.103.541-.21.8-.32.345-.184.7-.347 1.062-.491 2.283-1.141 3.838-2.566 4.701-4.256l.116-.237c1.039-2.228.988-5.071-.23-8.568l-.074-.202z"/>
</svg>
