<svg xmlns="http://www.w3.org/2000/svg" width="60" height="60" viewBox="0 0 60 60">
    <path fill="#129D51" fill-rule="nonzero" d="M39.796 2.67c2.373 1.833 3.897 4.423 4.306 7.313l.042.334c.206 1.85.698 2.958 1.745 3.996.989.981 2.04 1.471 3.724 1.694l.303.037c5.846.638 10.243 5.65 10.243 11.64 0 .55-.04 1.105-.116 1.65-.863 6.141-6.596 10.416-13.542 10.219a21.001 21.001 0 0 1-7.6-1.663 21.203 21.203 0 0 1-2.125 5.618C31.375 53.338 22.813 60 13.111 60 6.44 60 .942 55.69.113 49.694a12.158 12.158 0 0 1 2.399-9.05c1.903-2.464 4.622-4.012 7.647-4.348l.301-.037c1.67-.224 2.714-.718 3.695-1.707 1.039-1.047 1.527-2.164 1.73-4.028l.035-.286c.515-3.822 2.906-6.992 6.2-8.668-1.103-2.655-1.68-5.433-1.68-8.3C20.442 6.598 24.75 1.1 30.748.272c3.204-.444 6.499.43 9.05 2.399zm-12.27 20.146c-4.724 0-8.646 3.44-9.142 7.985l-.04.34c-.294 2.228-1.016 3.796-2.412 5.203-1.465 1.477-3.107 2.206-5.498 2.471l-.305.04c-2.222.326-4.21 1.502-5.633 3.346a9.61 9.61 0 0 0-1.893 7.143c.647 4.68 5.036 8.122 10.508 8.122 8.645 0 16.465-6.084 21.466-15.186a18.542 18.542 0 0 0 2.304-8.413c.163-5.712-3.246-10.284-8.053-10.96-.43-.06-.869-.09-1.303-.09zm-6.236 7.028l.129.007c.69.077 1.188.703 1.112 1.398-.37 3.384-1.504 5.907-3.648 8.068-2.143 2.161-4.647 3.305-8.003 3.677a1.26 1.26 0 0 1-1.387-1.12 1.265 1.265 0 0 1 1.112-1.399c2.806-.311 4.776-1.211 6.5-2.95 1.725-1.738 2.618-3.724 2.927-6.553a1.26 1.26 0 0 1 1.258-1.128zM31.097 2.76c-4.681.648-8.122 5.037-8.122 10.509 0 2.553.517 5.026 1.513 7.402a11.928 11.928 0 0 1 4.688-.274c6.14.863 10.416 6.596 10.218 13.542a20.83 20.83 0 0 1-.084 1.375 18.43 18.43 0 0 0 7.264 1.725c5.712.162 10.284-3.247 10.96-8.053.06-.43.09-.87.09-1.303 0-4.636-3.313-8.5-7.733-9.11l-.252-.032c-2.41-.263-4.065-.986-5.542-2.451-1.407-1.396-2.135-2.951-2.43-5.162l-.041-.337c-.26-2.345-1.459-4.45-3.386-5.938a9.61 9.61 0 0 0-7.143-1.893zm22.817 19.923c1.484 1.402 2.314 3.225 2.314 5.126 0 .694-.567 1.257-1.267 1.257s-1.267-.563-1.267-1.257c0-1.195-.534-2.366-1.528-3.306a1.25 1.25 0 0 1-.044-1.777 1.274 1.274 0 0 1 1.792-.043zm-26.31 1.418c.695 0 1.258.568 1.258 1.267 0 .7-.563 1.267-1.257 1.267-1.195 0-2.366.534-3.306 1.528a1.25 1.25 0 0 1-1.777.044 1.274 1.274 0 0 1-.043-1.791c1.402-1.484 3.224-2.315 5.126-2.315zm12.332-13.368c.31 2.806 1.21 4.776 2.95 6.5 1.738 1.725 3.724 2.618 6.553 2.927a1.26 1.26 0 0 1 1.128 1.258l-.007.129a1.265 1.265 0 0 1-1.398 1.111c-3.384-.369-5.907-1.504-8.068-3.647-2.161-2.144-3.305-4.647-3.677-8.004a1.26 1.26 0 0 1 1.12-1.386 1.265 1.265 0 0 1 1.399 1.112z"/>
</svg>
