<svg xmlns="http://www.w3.org/2000/svg" width="100" height="100" viewBox="0 0 100 100">
    <path fill="#FFF" fill-rule="nonzero" d="M98.544 0C99.348 0 100 .652 100 1.456v87.379c0 .804-.652 1.456-1.456 1.456h-5.017v8.253c0 .757-.577 1.379-1.316 1.45l-.14.006h-9.709a1.456 1.456 0 0 1-1.456-1.456V90.29H19.093v8.253c0 .757-.577 1.379-1.315 1.45l-.14.006h-9.71a1.456 1.456 0 0 1-1.456-1.456V90.29H1.456c-.757 0-1.379-.577-1.45-1.316L0 88.835V17.638c0-.805.652-1.457 1.456-1.457h15.579L32.789.427c.239-.24.552-.387.886-.42L33.819 0zM16.18 90.291H9.384v6.796h6.797v-6.796zm74.434 0h-6.797v6.796h6.797v-6.796zm6.472-87.378H34.42L18.667 18.667a1.456 1.456 0 0 1-.886.42l-.143.007H2.913v68.285h94.174V2.913zM69.475 25.89c.805 0 1.457.652 1.457 1.456v4.313l.186.051c1.8.511 3.534 1.232 5.17 2.15l.164.095 3.056-3.056a1.457 1.457 0 0 1 1.949-.1l.11.1 6.952 6.951c.568.569.568 1.491 0 2.06l-3.056 3.054.098.17a23.764 23.764 0 0 1 2.148 5.165l.05.186h4.312c.757 0 1.38.578 1.45 1.317l.007.14v9.825c0 .804-.653 1.456-1.457 1.456h-4.314l-.05.186a23.866 23.866 0 0 1-2.15 5.17l-.096.165 3.056 3.055c.533.533.567 1.377.1 1.949l-.1.11-6.95 6.952a1.456 1.456 0 0 1-2.06 0l-3.055-3.056-.168.098A23.768 23.768 0 0 1 71.116 78l-.185.05v4.312c0 .757-.577 1.38-1.315 1.45l-.14.007H59.65a1.456 1.456 0 0 1-1.457-1.457V78.05l-.185-.05a23.836 23.836 0 0 1-5.17-2.15l-.166-.097-3.054 3.058a1.457 1.457 0 0 1-1.95.1l-.11-.1-6.951-6.952a1.456 1.456 0 0 1 0-2.06l3.054-3.054-.097-.17a23.822 23.822 0 0 1-2.148-5.167l-.05-.185h-4.312c-.757 0-1.38-.577-1.45-1.316l-.006-.14v-9.824c0-.804.652-1.456 1.456-1.456h4.313l.051-.186c.51-1.8 1.232-3.535 2.15-5.17l.095-.166-3.056-3.054a1.457 1.457 0 0 1-.1-1.95l.1-.11 6.95-6.951a1.456 1.456 0 0 1 2.06 0l3.055 3.054.17-.097a23.768 23.768 0 0 1 5.167-2.148l.184-.05v-4.312c0-.757.578-1.379 1.316-1.45l.14-.006zm-1.457 2.912h-6.911v3.98c0 .621-.392 1.168-.967 1.373l-.126.038-.735.19a20.845 20.845 0 0 0-5.432 2.256l-.657.393a1.456 1.456 0 0 1-1.777-.22l-2.825-2.824-4.89 4.892 2.825 2.824c.438.438.548 1.102.286 1.653l-.066.125-.39.651a20.918 20.918 0 0 0-2.261 5.439l-.19.735a1.456 1.456 0 0 1-1.41 1.091H38.51v6.912h3.98c.621 0 1.168.392 1.373.967l.038.127.189.734a20.897 20.897 0 0 0 2.257 5.432l.393.656a1.456 1.456 0 0 1-.22 1.778l-2.824 2.824 4.891 4.891 2.825-2.824a1.456 1.456 0 0 1 1.653-.287l.125.067.651.39a20.918 20.918 0 0 0 5.438 2.26l.736.191a1.456 1.456 0 0 1 1.091 1.41v3.98h6.911l.001-3.98c0-.62.392-1.167.968-1.372l.126-.039.735-.189a20.845 20.845 0 0 0 5.431-2.257l.657-.393a1.456 1.456 0 0 1 1.777.22l2.824 2.823 4.891-4.89-2.825-2.824a1.456 1.456 0 0 1-.286-1.653l.067-.125.39-.651a20.948 20.948 0 0 0 2.26-5.439l.19-.736a1.456 1.456 0 0 1 1.41-1.09l3.98-.001v-6.912h-3.978c-.62 0-1.166-.39-1.371-.965l-.039-.126-.19-.737a20.845 20.845 0 0 0-2.258-5.432l-.393-.656a1.456 1.456 0 0 1 .22-1.778l2.823-2.824-4.891-4.892-2.823 2.826a1.456 1.456 0 0 1-1.654.287l-.125-.067-.65-.39a20.918 20.918 0 0 0-5.44-2.26l-.735-.191a1.456 1.456 0 0 1-1.09-1.41l-.002-3.981zm-3.455 10.033c8.847 0 16.02 7.172 16.02 16.02 0 8.847-7.173 16.019-16.02 16.019s-16.02-7.172-16.02-16.02c0-8.847 7.173-16.019 16.02-16.019zm0 2.913c-7.239 0-13.107 5.868-13.107 13.106 0 7.24 5.868 13.107 13.107 13.107 7.239 0 13.107-5.868 13.107-13.107 0-7.238-5.868-13.106-13.107-13.106z"/>
</svg>
