<svg xmlns="http://www.w3.org/2000/svg" width="60" height="60" viewBox="0 0 60 60">
    <path fill="#129D51" fill-rule="nonzero" d="M6.505.778a22.717 22.717 0 0 1 22.02 5.935c3.506 3.518 5.665 7.806 6.484 13.096a17.509 17.509 0 0 1 2.277-2.935l.263-.268a17.614 17.614 0 0 1 17.072-4.602c.545.146.97.57 1.114 1.114a17.73 17.73 0 0 1-4.583 17.11c-4.107 4.12-8.886 5.858-15.362 5.013-.28 1.799-.456 4.018-.522 6.645-.002.424-.006.856-.012 1.294a6.68 6.68 0 0 1 3.649 2.714l.092.147.197-.058a6.668 6.668 0 0 1 1.459-.227l.3-.007a6.66 6.66 0 0 1 3.083.753l.05.027.14-.124a6.658 6.658 0 0 1 4.075-1.6l.27-.006a6.667 6.667 0 0 1 6.45 4.966l.209.058a6.669 6.669 0 0 1 4.752 5.898l.013.229.005.25v2.375c0 .787-.64 1.425-1.429 1.425H1.43A1.427 1.427 0 0 1 0 58.575V58.1c0-3.673 2.985-6.65 6.667-6.65.558 0 1.108.068 1.638.202l.13.036.046-.05a6.663 6.663 0 0 1 4.103-2.046l.01-.001.092-.131a6.669 6.669 0 0 1 5.148-2.756l.261-.005c.866 0 1.707.166 2.486.478l.25.106.07-.125a6.671 6.671 0 0 1 5.523-3.305l.243-.004c.873 0 1.722.168 2.51.488l.012.004.162-.126a6.648 6.648 0 0 1 3.039-1.25l-.004.335c.004-.5.012-.986.024-1.462.022-4.513-.157-8.225-.533-11.13a6.75 6.75 0 0 0-.06-.373c-8.731 1.308-15.066-.904-20.513-6.369A22.871 22.871 0 0 1 5.39 1.892c.145-.543.57-.968 1.114-1.114zm26.828 44.971a3.798 3.798 0 0 0-2.836 1.264 1.431 1.431 0 0 1-1.82.258l-.202-.118a3.794 3.794 0 0 0-1.808-.454 3.806 3.806 0 0 0-3.726 3.01l-.032.125a1.43 1.43 0 0 1-2.307.654 3.794 3.794 0 0 0-2.507-.939c-1.447 0-2.749.812-3.396 2.075-.246.48-.743.78-1.285.776h-.08a3.804 3.804 0 0 0-3.209 1.751 1.43 1.43 0 0 1-1.819.517l-.22-.096a3.803 3.803 0 0 0-1.42-.272 3.81 3.81 0 0 0-3.648 2.702l-.04.148h54.165v-.92l-.003-.192a3.803 3.803 0 0 0-3.472-3.623 1.427 1.427 0 0 1-1.301-1.298l-.021-.188a3.808 3.808 0 0 0-3.775-3.28c-1.24 0-2.38.595-3.092 1.581a1.43 1.43 0 0 1-2.078.258 3.793 3.793 0 0 0-2.449-.889c-.689 0-1.346.182-1.923.521l-.12.063a1.43 1.43 0 0 1-1.961-.839 3.81 3.81 0 0 0-3.615-2.595zm6.449-26.929l-.234.24c-2.266 2.372-3.61 5.284-4.025 9.003l.15-.19c1.321-1.642 2.651-2.729 3.586-3.294a1.43 1.43 0 0 1 1.963.48c.409.673.193 1.55-.481 1.957l-.137.088c-.164.11-.405.288-.703.531a13.754 13.754 0 0 0-2.645 2.89c-.283.415-.539.962-.765 1.638 5.332.635 9.073-.783 12.428-4.15l.243-.248c3.269-3.438 4.65-8.2 3.762-12.828l-.022-.11-.104-.02a14.458 14.458 0 0 0-13.016 4.013zm-13.49-9.892C21.58 4.199 14.895 2.214 8.436 3.548l-.217.046-.048.224a19.726 19.726 0 0 0 5.097 17.658l.269.275c4.593 4.61 9.752 6.52 17.092 5.58-1.284-2.181-3.524-4.544-6.748-7.062a1.423 1.423 0 0 1-.244-2 1.43 1.43 0 0 1 2.006-.244c2.865 2.238 5.067 4.416 6.592 6.547-.066-6.587-1.963-11.513-5.682-15.377z"/>
</svg>
