<svg xmlns="http://www.w3.org/2000/svg" width="721" height="250" viewBox="0 0 721 250">
    <g fill="none" fill-rule="nonzero">
        <path fill="#000" d="M262.5 137.08H301c.828 0 1.5.705 1.5 1.575v16.807l-.007.152c-.073.799-.713 1.424-1.493 1.424h-38.5v11.03c0 .2-.036.398-.107.584l-8 21.009-.061.141a1.472 1.472 0 0 1-2.725-.141l-6.606-17.352-6.608 17.352-.061.141a1.472 1.472 0 0 1-2.725-.141l-6.606-17.352-6.608 17.352-.061.141a1.472 1.472 0 0 1-2.725-.141l-6.606-17.352-6.608 17.352-.061.141a1.472 1.472 0 0 1-2.725-.141l-6.606-17.352-6.608 17.352-.061.141a1.472 1.472 0 0 1-2.725-.141L181 172.309l-6.607 17.352-.061.141a1.472 1.472 0 0 1-2.725-.141L165 172.309l-6.607 17.352-.061.141a1.472 1.472 0 0 1-2.725-.141L149 172.309l-6.607 17.352-.061.141a1.472 1.472 0 0 1-2.725-.141L133 172.309l-6.607 17.352-.061.141a1.472 1.472 0 0 1-2.725-.141L117 172.309l-6.607 17.352-.061.141a1.472 1.472 0 0 1-2.725-.141L101 172.309l-6.607 17.352-.061.141a1.472 1.472 0 0 1-2.725-.141L85 172.309l-6.607 17.352-.061.141a1.472 1.472 0 0 1-2.725-.141L69 172.309l-6.607 17.352-.06.14c-.69 1.441-2.833.957-2.833-.725v-32.038H21c-.828 0-1.5-.706-1.5-1.576v-16.807l.007-.151c.073-.8.713-1.424 1.493-1.424h38.5V94.013H21c-.78 0-1.42-.625-1.493-1.424l-.007-.152V75.63c0-.87.672-1.575 1.5-1.575h38.5v-11.03c0-.15.02-.3.06-.443l.047-.142 8-21.008a1.474 1.474 0 0 1 2.786 0L77 58.782l6.607-17.35a1.472 1.472 0 0 1 2.725-.142l.06.142L93 58.782l6.607-17.35a1.472 1.472 0 0 1 2.725-.142l.06.142L109 58.782l6.607-17.35a1.472 1.472 0 0 1 2.725-.142l.06.142L125 58.782l6.607-17.35a1.472 1.472 0 0 1 2.725-.142l.06.142L141 58.782l6.607-17.35a1.472 1.472 0 0 1 2.725-.142l.06.142L157 58.782l6.607-17.35a1.472 1.472 0 0 1 2.725-.142l.06.142L173 58.782l6.607-17.35a1.472 1.472 0 0 1 2.725-.142l.06.142L189 58.782l6.607-17.35a1.472 1.472 0 0 1 2.725-.142l.06.142L205 58.782l6.607-17.35a1.472 1.472 0 0 1 2.725-.142l.06.142L221 58.782l6.607-17.35a1.472 1.472 0 0 1 2.725-.142l.06.142L237 58.782l6.607-17.35a1.472 1.472 0 0 1 2.725-.142l.06.142L253 58.782l6.607-17.35c.614-1.611 2.893-1.15 2.893.585v32.038H301c.78 0 1.42.625 1.493 1.424l.007.151v16.807c0 .87-.672 1.576-1.5 1.576h-38.5v43.067zm-18.21-9.637l-.044-.025a1.447 1.447 0 0 1-.215-.158 1.54 1.54 0 0 1-.363-.483l.065.121a1.695 1.695 0 0 1-.126-.262L237 109.284l-6.607 17.352a1.695 1.695 0 0 1-.126.262l.065-.121a1.54 1.54 0 0 1-.578.641 1.463 1.463 0 0 1-1.723-.158 1.54 1.54 0 0 1-.363-.483l.065.121a1.695 1.695 0 0 1-.126-.262L221 109.284l-6.607 17.352a1.695 1.695 0 0 1-.126.262l.065-.121a1.54 1.54 0 0 1-.578.641 1.463 1.463 0 0 1-1.723-.158 1.54 1.54 0 0 1-.363-.483l.065.121a1.695 1.695 0 0 1-.126-.262L205 109.284l-6.607 17.352a1.695 1.695 0 0 1-.126.262l.065-.121a1.54 1.54 0 0 1-.578.641 1.463 1.463 0 0 1-1.723-.158 1.54 1.54 0 0 1-.363-.483l.065.121a1.695 1.695 0 0 1-.126-.262L189 109.284l-6.607 17.352a1.695 1.695 0 0 1-.126.262l.065-.121a1.54 1.54 0 0 1-.578.641 1.463 1.463 0 0 1-1.723-.158 1.54 1.54 0 0 1-.363-.483l.065.121a1.695 1.695 0 0 1-.126-.262L173 109.284l-6.607 17.352a1.695 1.695 0 0 1-.126.262l.065-.121a1.54 1.54 0 0 1-.578.641 1.463 1.463 0 0 1-1.723-.158 1.54 1.54 0 0 1-.363-.483l.065.121a1.695 1.695 0 0 1-.126-.262L157 109.284l-6.607 17.352a1.695 1.695 0 0 1-.126.262l.065-.121a1.54 1.54 0 0 1-.578.641 1.463 1.463 0 0 1-1.723-.158 1.54 1.54 0 0 1-.363-.483l.065.121a1.695 1.695 0 0 1-.126-.262L141 109.284l-6.607 17.352a1.695 1.695 0 0 1-.126.262l.065-.121a1.54 1.54 0 0 1-.578.641 1.463 1.463 0 0 1-1.723-.158 1.54 1.54 0 0 1-.363-.483l.065.121a1.695 1.695 0 0 1-.126-.262L125 109.284l-6.607 17.352a1.695 1.695 0 0 1-.126.262l.065-.121a1.54 1.54 0 0 1-.578.641 1.463 1.463 0 0 1-1.723-.158 1.54 1.54 0 0 1-.363-.483l.065.121a1.695 1.695 0 0 1-.126-.262L109 109.284l-6.607 17.352a1.695 1.695 0 0 1-.126.262l.065-.121a1.54 1.54 0 0 1-.578.641 1.463 1.463 0 0 1-1.723-.158 1.54 1.54 0 0 1-.363-.483l.065.121a1.695 1.695 0 0 1-.126-.262L93 109.284l-6.607 17.352a1.532 1.532 0 0 1-.618.77 1.45 1.45 0 0 1-.773.22 1.47 1.47 0 0 1-1.106-.502c-.119-.138-.217-.3-.289-.488L77 109.284l-6.607 17.352a1.695 1.695 0 0 1-.126.262l.065-.121a1.54 1.54 0 0 1-.578.641 1.463 1.463 0 0 1-1.723-.158 1.54 1.54 0 0 1-.363-.483l.065.121a1.695 1.695 0 0 1-.126-.262l-1.838-4.829-3.269-8.584v25.432l-.007.152c-.073.8-.713 1.424-1.493 1.424H22.5v13.656H61l.144.007c.761.076 1.356.75 1.356 1.568v25.433l5.107-13.413.061-.141a1.472 1.472 0 0 1 2.725.141L77 184.833l6.607-17.35.061-.142a1.472 1.472 0 0 1 2.725.141L93 184.833l6.607-17.35.061-.142a1.472 1.472 0 0 1 2.725.141L109 184.833l6.607-17.35.061-.142a1.472 1.472 0 0 1 2.725.141L125 184.833l6.607-17.35.061-.142a1.472 1.472 0 0 1 2.725.141L141 184.833l6.607-17.35.061-.142a1.472 1.472 0 0 1 2.725.141L157 184.833l6.607-17.35.061-.142a1.472 1.472 0 0 1 2.725.141L173 184.833l6.607-17.35.061-.142a1.472 1.472 0 0 1 2.725.141L189 184.833l6.607-17.35.061-.142a1.472 1.472 0 0 1 2.725.141L205 184.833l6.606-17.35.061-.142a1.472 1.472 0 0 1 2.725.141L221 184.833l6.606-17.35.061-.142a1.472 1.472 0 0 1 2.725.141L237 184.833l6.606-17.35.061-.142a1.472 1.472 0 0 1 2.725.141L253 184.833l6.499-17.068v-12.303l.007-.152c.073-.799.713-1.423 1.493-1.423h38.5V140.23H261l-.144-.007c-.761-.076-1.356-.75-1.356-1.569v-12.3l-6.5-17.071-6.607 17.352a1.695 1.695 0 0 1-.126.262l.065-.121a1.54 1.54 0 0 1-.578.641 1.463 1.463 0 0 1-1.464.025zm-168.303-23.57l.091-.08a1.449 1.449 0 0 1 .944-.326 1.472 1.472 0 0 1 .99.406c.16.155.291.348.38.584L85 121.807l6.607-17.35a1.586 1.586 0 0 1 .471-.665 1.451 1.451 0 0 1 .944-.325 1.472 1.472 0 0 1 .99.406c.139.134.254.295.34.488l.04.096 6.608 17.35 6.607-17.35.04-.096a1.562 1.562 0 0 1 .431-.569 1.451 1.451 0 0 1 .944-.325 1.472 1.472 0 0 1 .99.406c.139.134.254.295.34.488l.04.096 6.608 17.35 6.607-17.35.04-.096a1.562 1.562 0 0 1 .431-.569 1.451 1.451 0 0 1 .944-.325 1.472 1.472 0 0 1 .99.406c.139.134.254.295.34.488l.04.096 6.608 17.35 6.607-17.35.04-.096a1.562 1.562 0 0 1 .431-.569 1.451 1.451 0 0 1 .944-.325 1.472 1.472 0 0 1 .99.406c.139.134.254.295.34.488l.04.096 6.608 17.35 6.607-17.35.04-.096a1.562 1.562 0 0 1 .431-.569 1.451 1.451 0 0 1 .944-.325 1.472 1.472 0 0 1 .99.406c.139.134.254.295.34.488l.04.096 6.608 17.35 6.607-17.35.04-.096a1.562 1.562 0 0 1 .431-.569 1.451 1.451 0 0 1 .944-.325 1.472 1.472 0 0 1 .99.406c.139.134.254.295.34.488l.04.096 6.608 17.35 6.607-17.35.04-.096a1.562 1.562 0 0 1 .431-.569 1.451 1.451 0 0 1 .944-.325 1.472 1.472 0 0 1 .99.406c.139.134.254.295.34.488l.04.096 6.608 17.35 6.607-17.35.04-.096a1.562 1.562 0 0 1 .431-.569 1.451 1.451 0 0 1 .944-.325 1.472 1.472 0 0 1 .99.406c.139.134.254.295.34.488l.04.096 6.608 17.35 6.607-17.35.04-.096a1.562 1.562 0 0 1 .431-.569 1.451 1.451 0 0 1 .944-.325 1.472 1.472 0 0 1 .99.406c.139.134.254.295.34.488l.04.096 6.608 17.35 6.607-17.35.04-.096a1.562 1.562 0 0 1 .431-.569 1.451 1.451 0 0 1 .944-.325 1.472 1.472 0 0 1 .99.406c.139.134.254.295.34.488l.04.096 6.608 17.35 6.607-17.35a1.532 1.532 0 0 1 .795-.864 1.463 1.463 0 0 1 1.317.061c.262.148.488.383.634.706l.04.097 5.107 13.413V92.437c0-.819.595-1.492 1.356-1.568l.144-.008h38.5V77.206H261c-.78 0-1.42-.625-1.493-1.424l-.007-.152V50.196l-5.107 13.414a1.472 1.472 0 0 1-2.725.142l-.06-.142L245 46.258l-6.607 17.352a1.474 1.474 0 0 1-2.786 0L229 46.258l-6.607 17.352a1.472 1.472 0 0 1-2.725.142l-.06-.142L213 46.258l-6.607 17.352a1.472 1.472 0 0 1-2.725.142l-.06-.142L197 46.258l-6.607 17.352a1.472 1.472 0 0 1-2.725.142l-.06-.142L181 46.258l-6.607 17.352a1.472 1.472 0 0 1-2.725.142l-.06-.142L165 46.258l-6.607 17.352a1.472 1.472 0 0 1-2.725.142l-.06-.142L149 46.258l-6.607 17.352a1.472 1.472 0 0 1-2.725.142l-.06-.142L133 46.258l-6.607 17.352a1.472 1.472 0 0 1-2.725.142l-.06-.142L117 46.258l-6.607 17.352a1.472 1.472 0 0 1-2.725.142l-.06-.142L101 46.258 94.393 63.61a1.472 1.472 0 0 1-2.725.142l-.06-.142L85 46.258 78.393 63.61a1.472 1.472 0 0 1-2.725.142l-.06-.142L69 46.258l-6.5 17.069V75.63c0 .82-.595 1.492-1.356 1.569l-.144.007H22.5V90.86H61c.78 0 1.42.625 1.493 1.424l.007.152v12.302l6.5 17.069 6.607-17.351.04-.096c.087-.193.202-.354.337-.485l.003-.003z"/>
        <path fill="#129D51" d="M62.393 104.457c-.308-.808-1.18-1.201-1.95-.878-.724.304-1.098 1.134-.883 1.905l.047.143 8 21.009a1.472 1.472 0 0 0 2.725.14l.06-.14L77 109.284l6.607 17.352a1.472 1.472 0 0 0 2.725.14l.06-.14L93 109.284l6.607 17.352a1.472 1.472 0 0 0 2.725.14l.06-.14L109 109.284l6.607 17.352a1.472 1.472 0 0 0 2.725.14l.06-.14L125 109.284l6.607 17.352a1.472 1.472 0 0 0 2.725.14l.06-.14L141 109.284l6.607 17.352a1.472 1.472 0 0 0 2.725.14l.06-.14L157 109.284l6.607 17.352a1.472 1.472 0 0 0 2.725.14l.06-.14L173 109.284l6.607 17.352a1.472 1.472 0 0 0 2.725.14l.06-.14L189 109.284l6.607 17.352a1.472 1.472 0 0 0 2.725.14l.06-.14L205 109.284l6.607 17.352a1.472 1.472 0 0 0 2.725.14l.06-.14L221 109.284l6.607 17.352a1.472 1.472 0 0 0 2.725.14l.06-.14L237 109.284l6.607 17.352a1.472 1.472 0 0 0 2.725.14l.06-.14L253 109.284l6.607 17.352c.29.76 1.08 1.153 1.813.927l.137-.05c.724-.304 1.098-1.134.883-1.904l-.047-.144-8-21.008a1.472 1.472 0 0 0-2.725-.141l-.06.14L245 121.809l-6.607-17.351a1.472 1.472 0 0 0-2.725-.141l-.06.14L229 121.809l-6.607-17.351a1.472 1.472 0 0 0-2.725-.141l-.06.14L213 121.809l-6.607-17.351a1.472 1.472 0 0 0-2.725-.141l-.06.14L197 121.809l-6.607-17.351a1.472 1.472 0 0 0-2.725-.141l-.06.14L181 121.809l-6.607-17.351a1.472 1.472 0 0 0-2.725-.141l-.06.14L165 121.809l-6.607-17.351a1.472 1.472 0 0 0-2.725-.141l-.06.14L149 121.809l-6.607-17.351a1.472 1.472 0 0 0-2.725-.141l-.06.14L133 121.809l-6.607-17.351a1.472 1.472 0 0 0-2.725-.141l-.06.14L117 121.809l-6.607-17.351a1.472 1.472 0 0 0-2.725-.141l-.06.14L101 121.809l-6.607-17.351a1.472 1.472 0 0 0-2.725-.141l-.06.14L85 121.809l-6.607-17.351a1.472 1.472 0 0 0-2.725-.141l-.06.14L69 121.809l-6.607-17.351z"/>
        <path fill="#000" d="M125.41 233.193v-1.45h-3.14v-13.508h-.94l-3.64 2.437v1.66l2.92-1.954v11.366h-3.14v1.45h7.94zm7.9.168c1.627 0 2.863-.65 3.71-1.953s1.27-3.208 1.27-5.715c0-2.493-.423-4.387-1.27-5.682-.847-1.296-2.083-1.944-3.71-1.944-1.627 0-2.863.648-3.71 1.944-.847 1.295-1.27 3.196-1.27 5.703s.423 4.409 1.27 5.704c.847 1.296 2.083 1.943 3.71 1.943zm0-1.45c-1.133 0-1.97-.507-2.51-1.522-.54-1.016-.81-2.58-.81-4.696 0-2.115.27-3.67.81-4.664.54-.994 1.377-1.491 2.51-1.491 1.147 0 1.987.497 2.52 1.491.533.995.8 2.55.8 4.664 0 2.13-.27 3.698-.81 4.706-.54 1.009-1.377 1.513-2.51 1.513zm12.4 1.45c1.627 0 2.863-.65 3.71-1.953s1.27-3.208 1.27-5.715c0-2.493-.423-4.387-1.27-5.682-.847-1.296-2.083-1.944-3.71-1.944-1.627 0-2.863.648-3.71 1.944-.847 1.295-1.27 3.196-1.27 5.703s.423 4.409 1.27 5.704c.847 1.296 2.083 1.943 3.71 1.943zm0-1.45c-1.133 0-1.97-.507-2.51-1.522-.54-1.016-.81-2.58-.81-4.696 0-2.115.27-3.67.81-4.664.54-.994 1.377-1.491 2.51-1.491 1.147 0 1.987.497 2.52 1.491.533.995.8 2.55.8 4.664 0 2.13-.27 3.698-.81 4.706-.54 1.009-1.377 1.513-2.51 1.513zm12.4 1.45c1.627 0 2.863-.65 3.71-1.953s1.27-3.208 1.27-5.715c0-2.493-.423-4.387-1.27-5.682-.847-1.296-2.083-1.944-3.71-1.944-1.627 0-2.863.648-3.71 1.944-.847 1.295-1.27 3.196-1.27 5.703s.423 4.409 1.27 5.704c.847 1.296 2.083 1.943 3.71 1.943zm0-1.45c-1.133 0-1.97-.507-2.51-1.522-.54-1.016-.81-2.58-.81-4.696 0-2.115.27-3.67.81-4.664.54-.994 1.377-1.491 2.51-1.491 1.147 0 1.987.497 2.52 1.491.533.995.8 2.55.8 4.664 0 2.13-.27 3.698-.81 4.706-.54 1.009-1.377 1.513-2.51 1.513zm15.2 1.282v-6.03c0-1.036.243-1.855.73-2.457.487-.602 1.157-.903 2.01-.903.733 0 1.267.227 1.6.682.333.455.5 1.173.5 2.154v6.554h1.62v-6.03c0-1.036.24-1.855.72-2.457.48-.602 1.147-.903 2-.903.733 0 1.263.224 1.59.672.327.448.49 1.17.49 2.164v6.554h1.62v-6.638c0-2.787-1.113-4.181-3.34-4.181-.747 0-1.417.186-2.01.557a3.591 3.591 0 0 0-1.35 1.502c-.24-.7-.613-1.219-1.12-1.555-.507-.336-1.16-.504-1.96-.504-.733 0-1.377.182-1.93.546-.553.364-.97.883-1.25 1.555l-.16-1.849h-1.54c.107.882.16 1.87.16 2.962v7.605h1.62zm17.98 0v-6.03c0-1.036.243-1.855.73-2.457.487-.602 1.157-.903 2.01-.903.733 0 1.267.227 1.6.682.333.455.5 1.173.5 2.154v6.554h1.62v-6.03c0-1.036.24-1.855.72-2.457.48-.602 1.147-.903 2-.903.733 0 1.263.224 1.59.672.327.448.49 1.17.49 2.164v6.554h1.62v-6.638c0-2.787-1.113-4.181-3.34-4.181-.747 0-1.417.186-2.01.557a3.591 3.591 0 0 0-1.35 1.502c-.24-.7-.613-1.219-1.12-1.555-.507-.336-1.16-.504-1.96-.504-.733 0-1.377.182-1.93.546-.553.364-.97.883-1.25 1.555l-.16-1.849h-1.54c.107.882.16 1.87.16 2.962v7.605h1.62zM307.959 212.469l.612-1.314-2.846-1.327 5.71-12.243-.853-.397-4.328.67-.702 1.505 3.472-.537-4.803 10.3-2.846-1.326-.612 1.313 7.196 3.356zm11.528 5.376l.613-1.314-6.38-2.975 5.632-2.473c1.188-.528 2.115-1.073 2.782-1.635a5.807 5.807 0 0 0 1.541-2.005c.51-1.092.569-2.119.18-3.081-.39-.962-1.178-1.72-2.362-2.272a6.99 6.99 0 0 0-2.551-.633c-.916-.056-1.746.051-2.49.323l.003 1.461c1.693-.477 3.156-.429 4.39.146.76.355 1.253.828 1.478 1.42.224.591.162 1.261-.188 2.01-.266.572-.671 1.078-1.216 1.52-.544.441-1.284.877-2.22 1.306l-6.963 3.15-.55 1.18 8.3 3.872zm6.799 3.355c1.474.688 2.87.62 4.188-.202 1.318-.823 2.506-2.37 3.566-4.643 1.053-2.259 1.47-4.155 1.25-5.687-.22-1.532-1.066-2.641-2.54-3.329-1.475-.687-2.87-.623-4.184.194-1.315.816-2.502 2.36-3.562 4.632s-1.48 4.174-1.26 5.706c.22 1.532 1.067 2.642 2.542 3.33zm.612-1.313c-1.027-.48-1.57-1.293-1.63-2.442-.061-1.148.356-2.68 1.25-4.597.893-1.917 1.795-3.212 2.705-3.885.91-.673 1.878-.77 2.905-.29 1.039.484 1.59 1.29 1.653 2.416.063 1.127-.352 2.648-1.246 4.565-.9 1.93-1.807 3.237-2.723 3.923-.915.685-1.887.789-2.914.31zm13.235 7.585l2.548-5.465c.438-.939 1.005-1.579 1.7-1.919.696-.34 1.43-.33 2.204.031.664.31 1.051.742 1.161 1.295.11.553-.042 1.274-.457 2.163l-2.77 5.94 1.468.685 2.549-5.464c.438-.94 1.001-1.58 1.69-1.924.69-.343 1.422-.334 2.195.027.665.31 1.05.737 1.157 1.28.107.545-.05 1.268-.47 2.17l-2.77 5.94 1.468.684 2.805-6.016c1.178-2.526.758-4.26-1.26-5.2a3.711 3.711 0 0 0-2.057-.346 3.591 3.591 0 0 0-1.858.791c.078-.736-.041-1.364-.358-1.882-.317-.52-.838-.948-1.563-1.286-.665-.31-1.325-.416-1.98-.32-.656.096-1.252.39-1.79.88l.636-1.743-1.396-.65a24.848 24.848 0 0 1-1.107 2.752l-3.214 6.892 1.469.685zm16.295 7.599l2.548-5.465c.438-.94 1.005-1.579 1.7-1.92.696-.34 1.43-.329 2.204.032.665.31 1.052.741 1.162 1.295.11.553-.043 1.274-.457 2.163l-2.77 5.94 1.468.685 2.548-5.465c.438-.94 1.002-1.58 1.691-1.923.69-.343 1.421-.334 2.195.026.664.31 1.05.737 1.157 1.282.106.544-.05 1.267-.47 2.168l-2.77 5.94 1.467.685 2.806-6.017c1.178-2.526.758-4.26-1.26-5.2a3.711 3.711 0 0 0-2.057-.345 3.591 3.591 0 0 0-1.859.79c.079-.735-.04-1.363-.358-1.882-.317-.518-.838-.947-1.563-1.285-.665-.31-1.325-.417-1.98-.32-.655.096-1.252.39-1.79.88l.636-1.743-1.395-.65a24.848 24.848 0 0 1-1.107 2.751l-3.214 6.893 1.468.685z"/>
        <path fill="#000" d="M260 157.038c.245 0 .45.186.492.43l.008.095v36.67l28.507 13.293a.486.486 0 0 1 0-.237l.03-.085 9.721-20.845a.513.513 0 0 1 .687-.23c.234.108.354.359.295.59l-.03.084-9.72 20.845a.483.483 0 0 1-.228.23l19.249 8.975a.513.513 0 0 1 .264.675.508.508 0 0 1-.598.264l-.089-.032-48.088-22.425v14.137l.203.108a.577.577 0 0 1 .074.961l-.074.047-.203.106v20.398c0 .29-.224.526-.5.526a.508.508 0 0 1-.492-.431l-.008-.095V211.22l-6.723 3.532a.525.525 0 0 1-.72-.252.584.584 0 0 1-.05-.165l-.007-.087v-3.638H69v3.638a.59.59 0 0 1-.025.171l-.032.081a.528.528 0 0 1-.63.29l-.09-.038-6.723-3.532v19.873c0 .29-.224.526-.5.526a.508.508 0 0 1-.492-.431l-.008-.095v-20.398l-.203-.106a.551.551 0 0 1-.24-.252.582.582 0 0 1 .157-.703l.083-.053.203-.108v-51.909c0-.29.224-.525.5-.525.245 0 .45.186.492.43l.008.095v51.384l6.723-3.53a.516.516 0 0 1 .24-.06c.267 0 .488.205.53.473l.007.091v3.638h183v-3.638c0-.28.195-.513.45-.556l.087-.008c.055 0 .11.01.163.027l.077.033 6.723 3.53V194.87l-8.032-3.745a.513.513 0 0 1-.265-.675.508.508 0 0 1 .599-.264l.089.033 7.609 3.548v-36.203c0-.29.224-.525.5-.525zm29.789 61.419c.055 0 .11.01.163.027l.077.033 7.926 4.162a.577.577 0 0 1 .074.962l-.074.047-7.926 4.163a.525.525 0 0 1-.72-.252.584.584 0 0 1-.05-.165l-.007-.087-.001-3.638h-21.5a.513.513 0 0 1-.5-.525c0-.258.178-.472.411-.517l.09-.008h21.499v-3.638c0-.28.196-.513.45-.557l.088-.007zm-27.845-51.12l.09.033 57.12 26.635a.513.513 0 0 1 .264.675.508.508 0 0 1-.598.264l-.089-.033-57.12-26.635a.513.513 0 0 1-.265-.675.508.508 0 0 1 .598-.264zm37.015-1.24c.267 0 .488.204.53.472l.007.092-.001 3.637h21.5c.277 0 .5.236.5.526a.519.519 0 0 1-.41.516l-.09.009h-21.5v3.638a.59.59 0 0 1-.025.171l-.03.08a.528.528 0 0 1-.63.29l-.091-.037-7.926-4.163a.551.551 0 0 1-.24-.252.582.582 0 0 1 .157-.703l.083-.054 7.926-4.163a.516.516 0 0 1 .24-.06zM321 146.534c.276 0 .5.235.5.525 0 .29-.224.525-.5.525h-20a.513.513 0 0 1-.5-.525c0-.29.224-.525.5-.525zm-300 0c.276 0 .5.235.5.525 0 .29-.224.525-.5.525H1a.513.513 0 0 1-.5-.525c0-.29.224-.525.5-.525zm30 0c.276 0 .5.235.5.525 0 .29-.224.525-.5.525H31a.513.513 0 0 1-.5-.525c0-.29.224-.525.5-.525zm30 0c.276 0 .5.235.5.525 0 .29-.224.525-.5.525H61a.513.513 0 0 1-.5-.525c0-.29.224-.525.5-.525zm30 0c.276 0 .5.235.5.525 0 .29-.224.525-.5.525H91a.513.513 0 0 1-.5-.525c0-.29.224-.525.5-.525zm30 0c.276 0 .5.235.5.525 0 .29-.224.525-.5.525h-20a.513.513 0 0 1-.5-.525c0-.29.224-.525.5-.525zm30 0c.276 0 .5.235.5.525 0 .29-.224.525-.5.525h-20a.513.513 0 0 1-.5-.525c0-.29.224-.525.5-.525zm30 0c.276 0 .5.235.5.525 0 .29-.224.525-.5.525h-20a.513.513 0 0 1-.5-.525c0-.29.224-.525.5-.525zm30 0c.276 0 .5.235.5.525 0 .29-.224.525-.5.525h-20a.513.513 0 0 1-.5-.525c0-.29.224-.525.5-.525zm30 0c.276 0 .5.235.5.525 0 .29-.224.525-.5.525h-20a.513.513 0 0 1-.5-.525c0-.29.224-.525.5-.525zm30 0c.276 0 .5.235.5.525 0 .29-.224.525-.5.525h-20a.513.513 0 0 1-.5-.525c0-.29.224-.525.5-.525zm93.3-35.252v11.827l-.005.25c-.037.984-.299 1.737-.785 2.26-.527.568-1.25.852-2.17.852-.44 0-.88-.063-1.32-.19v-1.45l.212.061c.277.072.533.108.768.108 1.12 0 1.68-.7 1.68-2.1v-11.618h1.62zm142.84-4.56c1.627 0 2.863.648 3.71 1.944.847 1.295 1.27 3.19 1.27 5.683 0 2.507-.423 4.412-1.27 5.714-.847 1.303-2.083 1.954-3.71 1.954-1.627 0-2.863-.648-3.71-1.943-.847-1.296-1.27-3.197-1.27-5.704 0-2.507.423-4.409 1.27-5.704.847-1.296 2.083-1.943 3.71-1.943zm90.02 0c1.627 0 2.863.648 3.71 1.944.847 1.295 1.27 3.19 1.27 5.683 0 2.507-.423 4.412-1.27 5.714-.847 1.303-2.083 1.954-3.71 1.954-1.627 0-2.863-.648-3.71-1.943-.847-1.296-1.27-3.197-1.27-5.704 0-2.507.423-4.409 1.27-5.704.847-1.296 2.083-1.943 3.71-1.943zm-259.76 0c.987 0 1.907.162 2.76.484a5.724 5.724 0 0 1 2.16 1.407l-.64 1.324-.25-.218c-.586-.492-1.18-.86-1.78-1.106a5.901 5.901 0 0 0-2.25-.42c-1.107 0-1.973.249-2.6.746s-.94 1.18-.94 2.048c0 .757.273 1.324.82 1.702.547.378 1.387.707 2.52.987 1.227.309 2.19.592 2.89.851.7.26 1.283.652 1.75 1.177.467.525.7 1.222.7 2.09 0 .84-.213 1.58-.64 2.217-.427.637-1.037 1.13-1.83 1.48-.793.35-1.723.526-2.79.526-2.227 0-4-.63-5.32-1.891l.62-1.323.266.227c.62.512 1.252.884 1.894 1.117.733.266 1.587.4 2.56.4 1.147 0 2.03-.235 2.65-.705.62-.469.93-1.13.93-1.985 0-.504-.15-.914-.45-1.229-.3-.315-.693-.564-1.18-.746-.487-.182-1.137-.37-1.95-.567-1.093-.252-1.993-.525-2.7-.82-.707-.293-1.28-.717-1.72-1.27-.44-.553-.66-1.278-.66-2.175 0-.854.213-1.607.64-2.258.427-.651 1.03-1.159 1.81-1.523.78-.364 1.69-.546 2.73-.546zm272.16 0c1.627 0 2.863.648 3.71 1.944.847 1.295 1.27 3.19 1.27 5.683 0 2.507-.423 4.412-1.27 5.714-.847 1.303-2.083 1.954-3.71 1.954-1.627 0-2.863-.648-3.71-1.943-.847-1.296-1.27-3.197-1.27-5.704 0-2.507.423-4.409 1.27-5.704.847-1.296 2.083-1.943 3.71-1.943zm12.4 0c1.627 0 2.863.648 3.71 1.944.847 1.295 1.27 3.19 1.27 5.683 0 2.507-.423 4.412-1.27 5.714-.847 1.303-2.083 1.954-3.71 1.954-1.627 0-2.863-.648-3.71-1.943-.847-1.296-1.27-3.197-1.27-5.704 0-2.507.423-4.409 1.27-5.704.847-1.296 2.083-1.943 3.71-1.943zm-234.08 4.307c.787 0 1.473.182 2.06.547a3.494 3.494 0 0 1 1.34 1.533v-1.827h1.6v10.567h-1.6v-1.912l-.103.214c-.29.555-.7.992-1.227 1.31-.593.356-1.283.535-2.07.535-.893 0-1.677-.224-2.35-.672-.673-.449-1.193-1.082-1.56-1.902-.367-.82-.55-1.775-.55-2.867 0-1.093.187-2.056.56-2.889.373-.833.897-1.481 1.57-1.943.673-.462 1.45-.694 2.33-.694zm64.2-4.138v1.428h-6.9v5.336l.172-.164c.76-.689 1.709-1.033 2.848-1.033.893 0 1.677.2 2.35.599.673.399 1.19.956 1.55 1.67.36.714.54 1.54.54 2.479 0 .938-.197 1.772-.59 2.5a4.131 4.131 0 0 1-1.68 1.691c-.727.4-1.577.599-2.55.599-.867 0-1.72-.165-2.56-.494-.84-.329-1.547-.78-2.12-1.355l.62-1.323.248.208c1.241 1.01 2.512 1.514 3.812 1.514 1 0 1.783-.297 2.35-.893.567-.595.85-1.404.85-2.426 0-.995-.28-1.796-.84-2.406-.56-.609-1.307-.913-2.24-.913-1.36 0-2.447.58-3.26 1.743h-1.14v-8.76h8.54zm132.68-.168c1.28 0 2.303.343 3.07 1.03.767.685 1.15 1.61 1.15 2.772 0 .855-.2 1.604-.6 2.248a3.365 3.365 0 0 1-1.66 1.387c.84.252 1.48.686 1.92 1.302.44.616.66 1.394.66 2.332 0 1.303-.42 2.329-1.26 3.078-.84.75-1.98 1.124-3.42 1.124a7.39 7.39 0 0 1-2.65-.483c-.847-.323-1.563-.778-2.15-1.366l.64-1.323.248.208c1.244 1.01 2.534 1.514 3.872 1.514 1.013 0 1.783-.238 2.31-.714.527-.476.79-1.177.79-2.1 0-1.836-1.093-2.753-3.28-2.753h-1.64v-1.45h1.32l.258-.005c.928-.037 1.649-.28 2.162-.73.56-.49.84-1.19.84-2.1 0-.813-.23-1.436-.69-1.87-.46-.435-1.11-.652-1.95-.652-1.36 0-2.707.574-4.04 1.723l-.62-1.324.221-.21a6.215 6.215 0 0 1 1.889-1.145 7.042 7.042 0 0 1 2.61-.493zm-216.54 4.58l3.4 8.697 3.44-8.697h1.62l-4.34 10.546h-1.54l-4.28-10.546h1.7zm296.46-.274c2.227 0 3.34 1.394 3.34 4.181v6.639h-1.62v-6.555l-.004-.264c-.027-.86-.189-1.492-.486-1.9-.327-.448-.857-.672-1.59-.672-.853 0-1.52.301-2 .903-.48.603-.72 1.422-.72 2.458v6.03h-1.62v-6.555l-.004-.26c-.028-.849-.193-1.48-.496-1.893-.333-.455-.867-.683-1.6-.683-.853 0-1.523.301-2.01.903-.487.603-.73 1.422-.73 2.458v6.03h-1.62v-7.605l-.003-.462a23.78 23.78 0 0 0-.157-2.5h1.54l.16 1.848.098-.218a3.275 3.275 0 0 1 1.152-1.336c.553-.365 1.197-.547 1.93-.547.8 0 1.453.168 1.96.505.507.336.88.854 1.12 1.554a3.591 3.591 0 0 1 1.35-1.502 3.711 3.711 0 0 1 2.01-.557zm-180.98-4.138v13.508h3.14v1.45h-7.94v-1.45h3.14v-11.365l-2.92 1.953v-1.66l3.64-2.436h.94zm66.16 4.138c2.227 0 3.34 1.394 3.34 4.181v6.639h-1.62v-6.555l-.004-.264c-.027-.86-.189-1.492-.486-1.9-.327-.448-.857-.672-1.59-.672-.853 0-1.52.301-2 .903-.48.603-.72 1.422-.72 2.458v6.03h-1.62v-6.555l-.004-.26c-.028-.849-.193-1.48-.496-1.893-.333-.455-.867-.683-1.6-.683-.853 0-1.523.301-2.01.903-.487.603-.73 1.422-.73 2.458v6.03h-1.62v-7.605l-.003-.462a23.78 23.78 0 0 0-.157-2.5h1.54l.16 1.848.098-.218a3.275 3.275 0 0 1 1.152-1.336c.553-.365 1.197-.547 1.93-.547.8 0 1.453.168 1.96.505.507.336.88.854 1.12 1.554a3.591 3.591 0 0 1 1.35-1.502 3.711 3.711 0 0 1 2.01-.557zm-151.82-4.642v9.747l4.74-4.831h2.06l-5.04 5.063 5.52 5.483h-2.12l-5.16-5.084v5.084h-1.62v-15.462h1.62zm-38.9 4.895v10.567h-1.62v-10.567h1.62zm135.58-4.56c1.307 0 2.34.354 3.1 1.062.76.707 1.14 1.663 1.14 2.867 0 .855-.183 1.677-.55 2.469-.367.791-.977 1.677-1.83 2.657l-4.06 4.622h7.04v1.45h-9.16v-1.303l4.98-5.798.242-.29c.544-.67.95-1.28 1.218-1.832.307-.63.46-1.26.46-1.89 0-.827-.227-1.46-.68-1.902-.453-.441-1.1-.662-1.94-.662-1.36 0-2.707.574-4.04 1.723l-.62-1.324.217-.204c.522-.466 1.156-.846 1.903-1.14a6.99 6.99 0 0 1 2.58-.504zm151.98 4.307c2.227 0 3.34 1.394 3.34 4.181v6.639h-1.62v-6.555l-.004-.264c-.027-.86-.189-1.492-.486-1.9-.327-.448-.857-.672-1.59-.672-.853 0-1.52.301-2 .903-.48.603-.72 1.422-.72 2.458v6.03H662v-6.555l-.004-.26c-.028-.849-.193-1.48-.496-1.893-.333-.455-.867-.683-1.6-.683-.853 0-1.523.301-2.01.903-.487.603-.73 1.422-.73 2.458v6.03h-1.62v-7.605l-.003-.462a23.78 23.78 0 0 0-.157-2.5h1.54l.16 1.848.098-.218a3.275 3.275 0 0 1 1.152-1.336c.553-.365 1.197-.547 1.93-.547.8 0 1.453.168 1.96.505.507.336.88.854 1.12 1.554a3.591 3.591 0 0 1 1.35-1.502 3.711 3.711 0 0 1 2.01-.557zm-266.22-4.642v15.462h-1.62v-15.462h1.62zm54.7.336c1.307 0 2.34.353 3.1 1.06.76.708 1.14 1.664 1.14 2.868 0 .855-.183 1.677-.55 2.469-.367.791-.977 1.677-1.83 2.657l-4.06 4.622h7.04v1.45h-9.16v-1.303l4.98-5.798.242-.29c.544-.67.95-1.28 1.218-1.832.307-.63.46-1.26.46-1.89 0-.827-.227-1.46-.68-1.902-.453-.441-1.1-.662-1.94-.662-1.36 0-2.707.574-4.04 1.723l-.62-1.324.217-.204c.522-.466 1.156-.846 1.903-1.14a6.99 6.99 0 0 1 2.58-.504zm-84.74 4.306c2.413 0 3.62 1.394 3.62 4.181v6.639h-1.62v-6.555l-.005-.26c-.03-.849-.216-1.48-.555-1.893-.373-.455-.96-.683-1.76-.683-.933 0-1.68.301-2.24.903-.56.603-.84 1.415-.84 2.437v6.05h-1.62v-7.604l-.003-.462a23.78 23.78 0 0 0-.157-2.5h1.54l.16 1.89.108-.223a3.404 3.404 0 0 1 1.272-1.363c.613-.371 1.313-.557 2.1-.557zm181.44 0c2.227 0 3.34 1.394 3.34 4.181v6.639h-1.62v-6.555l-.004-.264c-.027-.86-.189-1.492-.486-1.9-.327-.448-.857-.672-1.59-.672-.853 0-1.52.301-2 .903-.48.603-.72 1.422-.72 2.458v6.03h-1.62v-6.555l-.004-.26c-.028-.849-.193-1.48-.496-1.893-.333-.455-.867-.683-1.6-.683-.853 0-1.523.301-2.01.903-.487.603-.73 1.422-.73 2.458v6.03h-1.62v-7.605l-.003-.462a23.78 23.78 0 0 0-.157-2.5h1.54l.16 1.848.098-.218a3.275 3.275 0 0 1 1.152-1.336c.553-.365 1.197-.547 1.93-.547.8 0 1.453.168 1.96.505.507.336.88.854 1.12 1.554a3.591 3.591 0 0 1 1.35-1.502 3.711 3.711 0 0 1 2.01-.557zm-69.84.253l2.92 3.886 2.92-3.886h1.98l-3.92 5.126 4.14 5.44h-1.94l-3.18-4.159-3.14 4.16h-1.98l4.18-5.441-3.94-5.126h1.96zm-73.84 1.176c-.987 0-1.757.36-2.31 1.082-.553.721-.83 1.726-.83 3.015 0 1.288.273 2.283.82 2.983.547.7 1.32 1.05 2.32 1.05.987 0 1.747-.353 2.28-1.06.533-.708.8-1.713.8-3.015 0-1.303-.267-2.304-.8-3.005-.533-.7-1.293-1.05-2.28-1.05zm118.94-4.265c-1.133 0-1.97.497-2.51 1.492-.54.994-.81 2.549-.81 4.664 0 2.115.27 3.68.81 4.695.54 1.016 1.377 1.523 2.51 1.523 1.133 0 1.97-.504 2.51-1.512.54-1.009.81-2.577.81-4.706 0-2.115-.267-3.67-.8-4.664-.533-.995-1.373-1.492-2.52-1.492zm90.02 0c-1.133 0-1.97.497-2.51 1.492-.54.994-.81 2.549-.81 4.664 0 2.115.27 3.68.81 4.695.54 1.016 1.377 1.523 2.51 1.523 1.133 0 1.97-.504 2.51-1.512.54-1.009.81-2.577.81-4.706 0-2.115-.267-3.67-.8-4.664-.533-.995-1.373-1.492-2.52-1.492zm12.4 0c-1.133 0-1.97.497-2.51 1.492-.54.994-.81 2.549-.81 4.664 0 2.115.27 3.68.81 4.695.54 1.016 1.377 1.523 2.51 1.523 1.133 0 1.97-.504 2.51-1.512.54-1.009.81-2.577.81-4.706 0-2.115-.267-3.67-.8-4.664-.533-.995-1.373-1.492-2.52-1.492zm12.4 0c-1.133 0-1.97.497-2.51 1.492-.54.994-.81 2.549-.81 4.664 0 2.115.27 3.68.81 4.695.54 1.016 1.377 1.523 2.51 1.523 1.133 0 1.97-.504 2.51-1.512.54-1.009.81-2.577.81-4.706 0-2.115-.267-3.67-.8-4.664-.533-.995-1.373-1.492-2.52-1.492zm-50.3 9.076v1.323h-9.84v-1.323h9.84zm-149.56 0v1.323h-9.84v-1.323h9.84zm149.56-4.244v1.324h-9.84v-1.324h9.84zm-149.56 0v1.324h-9.84v-1.324h9.84zm-62.76-6.218v1.932h-1.98v-1.932h1.98zm5.14 0v1.932h-1.98v-1.932h1.98zM51 83.508c.276 0 .5.236.5.526 0 .29-.224.525-.5.525H31a.513.513 0 0 1-.5-.525c0-.29.224-.526.5-.526zm90 0c.276 0 .5.236.5.526 0 .29-.224.525-.5.525h-20a.513.513 0 0 1-.5-.525c0-.29.224-.526.5-.526zm-60 0c.276 0 .5.236.5.526 0 .29-.224.525-.5.525H61a.513.513 0 0 1-.5-.525c0-.29.224-.526.5-.526zm30 0c.276 0 .5.236.5.526 0 .29-.224.525-.5.525H91a.513.513 0 0 1-.5-.525c0-.29.224-.526.5-.526zm-90 0c.276 0 .5.236.5.526 0 .29-.224.525-.5.525H1a.513.513 0 0 1-.5-.525c0-.29.224-.526.5-.526zm150 0c.276 0 .5.236.5.526 0 .29-.224.525-.5.525h-20a.513.513 0 0 1-.5-.525c0-.29.224-.526.5-.526zm30 0c.276 0 .5.236.5.526 0 .29-.224.525-.5.525h-20a.513.513 0 0 1-.5-.525c0-.29.224-.526.5-.526zm30 0c.276 0 .5.236.5.526 0 .29-.224.525-.5.525h-20a.513.513 0 0 1-.5-.525c0-.29.224-.526.5-.526zm30 0c.276 0 .5.236.5.526 0 .29-.224.525-.5.525h-20a.513.513 0 0 1-.5-.525c0-.29.224-.526.5-.526zm30 0c.276 0 .5.236.5.526 0 .29-.224.525-.5.525h-20a.513.513 0 0 1-.5-.525c0-.29.224-.526.5-.526zm30 0c.276 0 .5.236.5.526 0 .29-.224.525-.5.525h-20a.513.513 0 0 1-.5-.525c0-.29.224-.526.5-.526zM4.86 23.11v-9.181l3.8 9.18h1.7l3.78-9.285v9.285h2.28V8.151h-2.04L9.52 19.853 4.62 8.15H2.58V23.11h2.28zm18.54.167c.693 0 1.307-.154 1.84-.462.533-.308.96-.756 1.28-1.344v1.638h2.44V12.5h-2.52v5.903c0 .84-.22 1.513-.66 2.017-.44.504-1.027.756-1.76.756-.627 0-1.09-.182-1.39-.546-.3-.364-.45-.931-.45-1.701V12.5H19.7v6.408c0 2.913 1.233 4.37 3.7 4.37zm11.16-.168V7.647h-2.48V23.11h2.48zm7.38.147c.627 0 1.16-.084 1.6-.252v-2.08c-.36.112-.693.168-1 .168-1.107 0-1.66-.623-1.66-1.87v-4.747h2.68V12.5h-2.68V9.034l-2.5.882V12.5h-1.94v1.975h1.94v4.874c0 1.26.307 2.227.92 2.899.613.672 1.493 1.008 2.64 1.008zm6.36-12.983V7.69h-2.78v2.584h2.78zm-.14 12.836V12.5h-2.48v10.61h2.48zm7.72.168c.747 0 1.46-.119 2.14-.357.68-.238 1.233-.567 1.66-.987l-.7-1.849c-.427.364-.88.644-1.36.84-.48.196-.953.294-1.42.294-.92 0-1.63-.294-2.13-.882-.5-.588-.75-1.442-.75-2.563 0-1.12.253-1.978.76-2.573.507-.596 1.213-.893 2.12-.893.467 0 .94.094 1.42.283.48.19.933.466 1.36.83l.7-1.849c-.4-.42-.937-.749-1.61-.987a6.224 6.224 0 0 0-2.09-.357c-1.04 0-1.957.234-2.75.704a4.772 4.772 0 0 0-1.84 1.964c-.433.84-.65 1.814-.65 2.92 0 1.107.207 2.07.62 2.889a4.475 4.475 0 0 0 1.78 1.901c.773.448 1.687.672 2.74.672zm8.36-.168v-5.735c0-.854.223-1.54.67-2.059.447-.518 1.097-.777 1.95-.777.453 0 .893.09 1.32.273l.02-2.395a2.687 2.687 0 0 0-1-.168c-.693 0-1.313.182-1.86.546-.547.364-.947.89-1.2 1.576l-.2-1.87H61.6c.107.882.16 1.884.16 3.004v7.605h2.48zm9.48.168c.733 0 1.387-.164 1.96-.493A3.33 3.33 0 0 0 77 21.408v1.701h2.46V12.5H77v1.597a3.33 3.33 0 0 0-1.32-1.376c-.573-.33-1.227-.494-1.96-.494-.867 0-1.64.234-2.32.704-.68.469-1.21 1.127-1.59 1.974-.38.848-.57 1.818-.57 2.91 0 1.093.187 2.052.56 2.878.373.827.9 1.464 1.58 1.912.68.448 1.46.672 2.34.672zm.68-2.059c-.84 0-1.49-.294-1.95-.882-.46-.588-.69-1.428-.69-2.52 0-1.107.23-1.972.69-2.595.46-.624 1.103-.935 1.93-.935.84 0 1.487.3 1.94.903.453.602.68 1.464.68 2.584 0 1.093-.227 1.94-.68 2.542-.453.602-1.093.903-1.92.903zm12.76 2.06c.747 0 1.46-.12 2.14-.358.68-.238 1.233-.567 1.66-.987l-.7-1.849c-.427.364-.88.644-1.36.84-.48.196-.953.294-1.42.294-.92 0-1.63-.294-2.13-.882-.5-.588-.75-1.442-.75-2.563 0-1.12.253-1.978.76-2.573.507-.596 1.213-.893 2.12-.893.467 0 .94.094 1.42.283.48.19.933.466 1.36.83l.7-1.849c-.4-.42-.937-.749-1.61-.987a6.224 6.224 0 0 0-2.09-.357c-1.04 0-1.957.234-2.75.704a4.772 4.772 0 0 0-1.84 1.964c-.433.84-.65 1.814-.65 2.92 0 1.107.207 2.07.62 2.889a4.475 4.475 0 0 0 1.78 1.901c.773.448 1.687.672 2.74.672zm8.36-.169v-4.895l4.42 4.895h3.12l-4.9-5.525 4.54-5.063h-3.02l-4.16 4.664V7.647h-2.48V23.11h2.48zm13.56.168c.72 0 1.43-.122 2.13-.367s1.29-.571 1.77-.977l-.72-1.807c-.947.756-1.973 1.135-3.08 1.135-.96 0-1.683-.27-2.17-.81-.487-.539-.757-1.375-.81-2.51h6.96v-.399c0-1.653-.403-2.952-1.21-3.897-.807-.945-1.903-1.418-3.29-1.418-.947 0-1.793.234-2.54.704-.747.469-1.327 1.124-1.74 1.964-.413.84-.62 1.8-.62 2.878 0 1.709.473 3.053 1.42 4.034.947.98 2.247 1.47 3.9 1.47zm1.9-6.743h-4.7c.12-.785.39-1.383.81-1.797.42-.413.963-.62 1.63-.62.667 0 1.19.204 1.57.61.38.406.61 1.008.69 1.807zm7.18 6.575v-5.735c0-.854.223-1.54.67-2.059.447-.518 1.097-.777 1.95-.777.453 0 .893.09 1.32.273l.02-2.395a2.687 2.687 0 0 0-1-.168c-.693 0-1.313.182-1.86.546-.547.364-.947.89-1.2 1.576l-.2-1.87h-2.34c.107.882.16 1.884.16 3.004v7.605h2.48zm6.24 2.815c.573-.602.98-1.204 1.22-1.806.24-.603.36-1.275.36-2.017v-1.933h-2.8v2.941h1.28c-.093.602-.453 1.254-1.08 1.954l1.02.861zm20-2.815v-2.206h-3.1V8.151h-1.5l-3.96 2.521v2.416l2.9-1.827v9.642h-3.12v2.206h8.78zm11.1 0v-5.924c0-.896.2-1.6.6-2.111.4-.512.947-.767 1.64-.767.587 0 1.017.189 1.29.567.273.378.41.98.41 1.807v6.428h2.5v-5.924c0-.896.197-1.6.59-2.111.393-.512.937-.767 1.63-.767.6 0 1.03.185 1.29.556.26.372.39.977.39 1.818v6.428h2.5v-6.512c0-1.47-.28-2.567-.84-3.288-.56-.721-1.413-1.082-2.56-1.082-.733 0-1.397.178-1.99.536-.593.357-1.05.85-1.37 1.48-.467-1.344-1.473-2.016-3.02-2.016-.72 0-1.357.168-1.91.504-.553.336-.977.82-1.27 1.45l-.18-1.681h-2.34c.107.882.16 1.884.16 3.004v7.605h2.48zm20.66.168c.72 0 1.43-.122 2.13-.367s1.29-.571 1.77-.977l-.72-1.807c-.947.756-1.973 1.135-3.08 1.135-.96 0-1.683-.27-2.17-.81-.487-.539-.757-1.375-.81-2.51h6.96v-.399c0-1.653-.403-2.952-1.21-3.897-.807-.945-1.903-1.418-3.29-1.418-.947 0-1.793.234-2.54.704-.747.469-1.327 1.124-1.74 1.964-.413.84-.62 1.8-.62 2.878 0 1.709.473 3.053 1.42 4.034.947.98 2.247 1.47 3.9 1.47zm1.9-6.743h-4.7c.12-.785.39-1.383.81-1.797.42-.413.963-.62 1.63-.62.667 0 1.19.204 1.57.61.38.406.61 1.008.69 1.807zm8.8 6.722c.627 0 1.16-.084 1.6-.252v-2.08c-.36.112-.693.168-1 .168-1.107 0-1.66-.623-1.66-1.87v-4.747h2.68V12.5h-2.68V9.034l-2.5.882V12.5h-1.94v1.975h1.94v4.874c0 1.26.307 2.227.92 2.899.613.672 1.493 1.008 2.64 1.008zm8.5.021c.72 0 1.43-.122 2.13-.367s1.29-.571 1.77-.977l-.72-1.807c-.947.756-1.973 1.135-3.08 1.135-.96 0-1.683-.27-2.17-.81-.487-.539-.757-1.375-.81-2.51h6.96v-.399c0-1.653-.403-2.952-1.21-3.897-.807-.945-1.903-1.418-3.29-1.418-.947 0-1.793.234-2.54.704-.747.469-1.327 1.124-1.74 1.964-.413.84-.62 1.8-.62 2.878 0 1.709.473 3.053 1.42 4.034.947.98 2.247 1.47 3.9 1.47zm1.9-6.743h-4.7c.12-.785.39-1.383.81-1.797.42-.413.963-.62 1.63-.62.667 0 1.19.204 1.57.61.38.406.61 1.008.69 1.807zm7.18 6.575v-5.735c0-.854.223-1.54.67-2.059.447-.518 1.097-.777 1.95-.777.453 0 .893.09 1.32.273l.02-2.395a2.687 2.687 0 0 0-1-.168c-.693 0-1.313.182-1.86.546-.547.364-.947.89-1.2 1.576l-.2-1.87h-2.34c.107.882.16 1.884.16 3.004v7.605h2.48z"/>
        <path fill="#129D51" d="M332.5 110.82l9 4.726-9 4.727v-4.202h-62v-1.05h62z"/>
    </g>
</svg>
