<svg xmlns="http://www.w3.org/2000/svg" width="720" height="238" viewBox="0 0 720 238">
    <g fill="none" fill-rule="nonzero">
        <path fill="#000" d="M661.5 143.276H700c.78 0 1.42.566 1.493 1.29l.007.138v15.232c0 .789-.672 1.428-1.5 1.428h-38.5V190.4c0 .742-.595 1.352-1.356 1.421l-.144.007H60c-.828 0-1.5-.64-1.5-1.428v-29.036H20c-.78 0-1.42-.566-1.493-1.29l-.007-.138v-15.232c0-.789.672-1.428 1.5-1.428h38.5V85.204H20c-.78 0-1.42-.566-1.493-1.29l-.007-.138V68.544c0-.789.672-1.428 1.5-1.428h38.5V38.08c0-.742.595-1.352 1.356-1.421l.144-.007h600c.828 0 1.5.64 1.5 1.428v29.036H700c.78 0 1.42.566 1.493 1.29l.007.138v15.232c0 .789-.672 1.428-1.5 1.428h-38.5v58.072zm-3-27.608h-597v29.036c0 .742-.595 1.352-1.356 1.421l-.144.007H21.5v12.376H60c.78 0 1.42.566 1.493 1.29l.007.138v29.036h597v-29.036c0-.742.595-1.352 1.356-1.421l.144-.007h38.5v-12.376H660c-.78 0-1.42-.566-1.493-1.29l-.007-.138v-29.036zm0-76.16h-597v29.036c0 .742-.595 1.352-1.356 1.421l-.144.007H21.5v12.376H60c.78 0 1.42.566 1.493 1.29l.007.138v29.036h597V83.776c0-.742.595-1.352 1.356-1.421l.144-.007h38.5V69.972H660c-.78 0-1.42-.566-1.493-1.29l-.007-.138V39.508zM320.27 230.517c1.44 0 2.58-.34 3.42-1.018.84-.68 1.26-1.61 1.26-2.79 0-.85-.22-1.555-.66-2.113-.44-.559-1.08-.952-1.92-1.18.707-.255 1.26-.673 1.66-1.257.4-.584.6-1.263.6-2.038 0-1.053-.383-1.89-1.15-2.513-.767-.622-1.79-.933-3.07-.933-.907 0-1.777.15-2.61.448-.833.298-1.537.707-2.11 1.228l.62 1.2c1.333-1.042 2.68-1.562 4.04-1.562.84 0 1.49.197 1.95.59.46.394.69.959.69 1.695 0 .825-.28 1.46-.84 1.904-.56.444-1.367.666-2.42.666h-1.32v1.314h1.64c2.187 0 3.28.831 3.28 2.494 0 .838-.263 1.473-.79 1.904-.527.432-1.297.648-2.31.648-1.427 0-2.8-.52-4.12-1.562l-.64 1.2c.587.533 1.303.945 2.15 1.237.847.292 1.73.438 2.65.438zm12.54.02c1.627 0 2.863-.59 3.71-1.771.847-1.18 1.27-2.907 1.27-5.18 0-2.259-.423-3.975-1.27-5.15-.847-1.174-2.083-1.76-3.71-1.76-1.627 0-2.863.586-3.71 1.76-.847 1.175-1.27 2.898-1.27 5.17s.423 3.995 1.27 5.17c.847 1.173 2.083 1.76 3.71 1.76zm0-1.314c-1.133 0-1.97-.46-2.51-1.38-.54-.921-.81-2.34-.81-4.256 0-1.917.27-3.326.81-4.227.54-.901 1.377-1.352 2.51-1.352 1.147 0 1.987.45 2.52 1.352.533.901.8 2.31.8 4.227 0 1.93-.27 3.35-.81 4.265-.54.914-1.377 1.37-2.51 1.37zm12.4 1.313c1.627 0 2.863-.59 3.71-1.77.847-1.18 1.27-2.907 1.27-5.18 0-2.259-.423-3.975-1.27-5.15-.847-1.174-2.083-1.76-3.71-1.76-1.627 0-2.863.586-3.71 1.76-.847 1.175-1.27 2.898-1.27 5.17s.423 3.995 1.27 5.17c.847 1.173 2.083 1.76 3.71 1.76zm0-1.313c-1.133 0-1.97-.46-2.51-1.38-.54-.921-.81-2.34-.81-4.256 0-1.917.27-3.326.81-4.227.54-.901 1.377-1.352 2.51-1.352 1.147 0 1.987.45 2.52 1.352.533.901.8 2.31.8 4.227 0 1.93-.27 3.35-.81 4.265-.54.914-1.377 1.37-2.51 1.37zm12.4 1.313c1.627 0 2.863-.59 3.71-1.77.847-1.18 1.27-2.907 1.27-5.18 0-2.259-.423-3.975-1.27-5.15-.847-1.174-2.083-1.76-3.71-1.76-1.627 0-2.863.586-3.71 1.76-.847 1.175-1.27 2.898-1.27 5.17s.423 3.995 1.27 5.17c.847 1.173 2.083 1.76 3.71 1.76zm0-1.313c-1.133 0-1.97-.46-2.51-1.38-.54-.921-.81-2.34-.81-4.256 0-1.917.27-3.326.81-4.227.54-.901 1.377-1.352 2.51-1.352 1.147 0 1.987.45 2.52 1.352.533.901.8 2.31.8 4.227 0 1.93-.27 3.35-.81 4.265-.54.914-1.377 1.37-2.51 1.37zm15.2 1.161v-5.464c0-.94.243-1.682.73-2.228.487-.546 1.157-.819 2.01-.819.733 0 1.267.206 1.6.619.333.412.5 1.063.5 1.952v5.94h1.62v-5.464c0-.94.24-1.682.72-2.228.48-.546 1.147-.819 2-.819.733 0 1.263.203 1.59.61.327.406.49 1.06.49 1.96v5.941h1.62v-6.017c0-2.526-1.113-3.789-3.34-3.789-.747 0-1.417.169-2.01.505a3.39 3.39 0 0 0-1.35 1.361c-.24-.634-.613-1.104-1.12-1.409-.507-.304-1.16-.457-1.96-.457-.733 0-1.377.165-1.93.495-.553.33-.97.8-1.25 1.41l-.16-1.676h-1.54c.107.8.16 1.694.16 2.685v6.892h1.62zm17.98 0v-5.464c0-.94.243-1.682.73-2.228.487-.546 1.157-.819 2.01-.819.733 0 1.267.206 1.6.619.333.412.5 1.063.5 1.952v5.94h1.62v-5.464c0-.94.24-1.682.72-2.228.48-.546 1.147-.819 2-.819.733 0 1.263.203 1.59.61.327.406.49 1.06.49 1.96v5.941h1.62v-6.017c0-2.526-1.113-3.789-3.34-3.789-.747 0-1.417.169-2.01.505a3.39 3.39 0 0 0-1.35 1.361c-.24-.634-.613-1.104-1.12-1.409-.507-.304-1.16-.457-1.96-.457-.733 0-1.377.165-1.93.495-.553.33-.97.8-1.25 1.41l-.16-1.676h-1.54c.107.8.16 1.694.16 2.685v6.892h1.62z"/>
        <path fill="#000" d="M60 161.364c.245 0 .45.168.492.39l.008.086v46.807l7.223-3.437a.56.56 0 0 1 .24-.054.53.53 0 0 1 .528.42l.009.091v3.297h583v-3.297a.52.52 0 0 1 .45-.504l.087-.007c.055 0 .11.008.163.024l.077.03 7.223 3.437V161.84c0-.263.224-.476.5-.476.245 0 .45.168.492.39l.008.086v66.64a.488.488 0 0 1-.5.476.494.494 0 0 1-.492-.39l-.008-.086v-18.248l-7.223 3.438a.55.55 0 0 1-.72-.229.494.494 0 0 1-.05-.15l-.007-.078v-3.297h-583v3.297a.489.489 0 0 1-.025.155l-.032.073a.547.547 0 0 1-.63.263l-.09-.034-7.223-3.438v18.248a.488.488 0 0 1-.5.476.494.494 0 0 1-.492-.39l-.008-.086v-66.64c0-.263.224-.476.5-.476zm-40-9.52a.5.5 0 0 1 0 1H0a.5.5 0 0 1 0-1zm660 0a.5.5 0 0 1 0 1h-20a.5.5 0 0 1 0-1zm-30 0a.5.5 0 0 1 0 1h-20a.5.5 0 0 1 0-1zm-30 0a.5.5 0 0 1 0 1h-20a.5.5 0 0 1 0-1zm-30 0a.5.5 0 0 1 0 1h-20a.5.5 0 0 1 0-1zm-30 0a.5.5 0 0 1 0 1h-20a.5.5 0 0 1 0-1zm-30 0a.5.5 0 0 1 0 1h-20a.5.5 0 0 1 0-1zm-30 0a.5.5 0 0 1 0 1h-20a.5.5 0 0 1 0-1zm-30 0a.5.5 0 0 1 0 1h-20a.5.5 0 0 1 0-1zm-30 0a.5.5 0 0 1 0 1h-20a.5.5 0 0 1 0-1zm-30 0a.5.5 0 0 1 0 1h-20a.5.5 0 0 1 0-1zm-30 0a.5.5 0 0 1 0 1h-20a.5.5 0 0 1 0-1zm-30 0a.5.5 0 0 1 0 1h-20a.5.5 0 0 1 0-1zm-30 0a.5.5 0 0 1 0 1h-20a.5.5 0 0 1 0-1zm-30 0a.5.5 0 0 1 0 1h-20a.5.5 0 0 1 0-1zm-30 0a.5.5 0 0 1 0 1h-20a.5.5 0 0 1 0-1zm-30 0a.5.5 0 0 1 0 1h-20a.5.5 0 0 1 0-1zm-30 0a.5.5 0 0 1 0 1h-20a.5.5 0 0 1 0-1zm-30 0a.5.5 0 0 1 0 1h-20a.5.5 0 0 1 0-1zm-30 0a.5.5 0 0 1 0 1h-20a.5.5 0 0 1 0-1zm-30 0a.5.5 0 0 1 0 1H90a.5.5 0 0 1 0-1zm600 0a.5.5 0 0 1 0 1h-20a.5.5 0 0 1 0-1zm-660 0a.5.5 0 0 1 0 1H30a.5.5 0 0 1 0-1zm30 0a.5.5 0 0 1 0 1H60a.5.5 0 0 1 0-1zm-30-76.16a.5.5 0 1 1 0 1H30a.5.5 0 1 1 0-1zm630 0a.5.5 0 0 1 0 1h-20a.5.5 0 0 1 0-1zm-660 0a.5.5 0 1 1 0 1H0a.5.5 0 1 1 0-1zm600 0a.5.5 0 0 1 0 1h-20a.5.5 0 0 1 0-1zm-30 0a.5.5 0 0 1 0 1h-20a.5.5 0 0 1 0-1zm-30 0a.5.5 0 0 1 0 1h-20a.5.5 0 0 1 0-1zm-30 0a.5.5 0 0 1 0 1h-20a.5.5 0 0 1 0-1zm-30 0a.5.5 0 0 1 0 1h-20a.5.5 0 0 1 0-1zm-30 0a.5.5 0 0 1 0 1h-20a.5.5 0 0 1 0-1zm-30 0a.5.5 0 0 1 0 1h-20a.5.5 0 0 1 0-1zm-30 0a.5.5 0 0 1 0 1h-20a.5.5 0 0 1 0-1zm-30 0a.5.5 0 0 1 0 1h-20a.5.5 0 0 1 0-1zm-30 0a.5.5 0 0 1 0 1h-20a.5.5 0 0 1 0-1zm-30 0a.5.5 0 0 1 0 1h-20a.5.5 0 0 1 0-1zm-30 0a.5.5 0 0 1 0 1h-20a.5.5 0 0 1 0-1zm-30 0a.5.5 0 0 1 0 1h-20a.5.5 0 0 1 0-1zm-30 0a.5.5 0 0 1 0 1h-20a.5.5 0 0 1 0-1zm-30 0a.5.5 0 0 1 0 1h-20a.5.5 0 0 1 0-1zm-30 0a.5.5 0 0 1 0 1h-20a.5.5 0 0 1 0-1zm-30 0a.5.5 0 0 1 0 1h-20a.5.5 0 0 1 0-1zm-30 0a.5.5 0 0 1 0 1H90a.5.5 0 1 1 0-1zm-30 0a.5.5 0 1 1 0 1H60a.5.5 0 1 1 0-1zm570 0a.5.5 0 0 1 0 1h-20a.5.5 0 0 1 0-1zm60 0a.5.5 0 0 1 0 1h-20a.5.5 0 0 1 0-1z"/>
        <path fill="#129D51" d="M660 112.812c.828 0 1.5.64 1.5 1.428 0 .742-.595 1.352-1.356 1.421l-.144.007H60c-.828 0-1.5-.64-1.5-1.428 0-.742.595-1.352 1.356-1.421l.144-.007h600z"/>
        <path fill="#000" d="M7.6 20.944l3.62-9.748 3.58 9.748h2.1l5.04-13.556h-2.48l-3.64 10.186L12.2 7.388h-1.84l-3.7 10.11L3.1 7.388H.48L5.5 20.944h2.1zm19.3.152c.733 0 1.387-.149 1.96-.447a3.173 3.173 0 0 0 1.32-1.247v1.542h2.46v-9.615h-2.46v1.447a3.173 3.173 0 0 0-1.32-1.247c-.573-.299-1.227-.448-1.96-.448-.867 0-1.64.213-2.32.638-.68.425-1.21 1.022-1.59 1.79-.38.768-.57 1.647-.57 2.637s.187 1.86.56 2.608c.373.75.9 1.327 1.58 1.733.68.406 1.46.61 2.34.61zm.68-1.866c-.84 0-1.49-.266-1.95-.8-.46-.532-.69-1.294-.69-2.284 0-1.003.23-1.787.69-2.352.46-.564 1.103-.847 1.93-.847.84 0 1.487.273 1.94.819.453.546.68 1.326.68 2.342 0 .99-.227 1.758-.68 2.304-.453.545-1.093.818-1.92.818zm10.66 1.714V6.931h-2.48v14.013h2.48zm6.84.152c1.293 0 2.313-.26 3.06-.78.747-.52 1.12-1.225 1.12-2.114 0-.723-.23-1.31-.69-1.761-.46-.45-1.19-.784-2.19-1l-1.72-.361c-.467-.115-.797-.254-.99-.42-.193-.164-.29-.386-.29-.666 0-.355.16-.634.48-.837.32-.203.767-.305 1.34-.305 1.067 0 2.107.355 3.12 1.066l.74-1.618a5.553 5.553 0 0 0-1.76-.905 6.899 6.899 0 0 0-2.08-.314c-.827 0-1.553.127-2.18.381-.627.254-1.113.606-1.46 1.057-.347.45-.52.968-.52 1.552 0 1.409.92 2.303 2.76 2.684l1.68.362c.547.127.933.276 1.16.447.227.172.34.403.34.695 0 .343-.163.61-.49.8-.327.19-.79.286-1.39.286-1.387 0-2.62-.381-3.7-1.143l-.7 1.676c1.08.812 2.533 1.218 4.36 1.218zm9.2-.152v-5.37c0-.812.2-1.45.6-1.913.4-.463.947-.695 1.64-.695.587 0 1.017.172 1.29.514.273.343.41.889.41 1.638v5.826h2.5v-5.37c0-.812.197-1.45.59-1.913.393-.463.937-.695 1.63-.695.6 0 1.03.168 1.29.505.26.336.39.885.39 1.647v5.826h2.5v-5.902c0-1.333-.28-2.326-.84-2.98-.56-.654-1.413-.98-2.56-.98-.733 0-1.397.161-1.99.485a3.4 3.4 0 0 0-1.37 1.342c-.467-1.218-1.473-1.828-3.02-1.828-.72 0-1.357.153-1.91.457a3.06 3.06 0 0 0-1.27 1.314l-.18-1.523h-2.34c.107.8.16 1.707.16 2.723v6.892h2.48zm20.48.152c1.013 0 1.907-.203 2.68-.609a4.281 4.281 0 0 0 1.79-1.742c.42-.755.63-1.64.63-2.656 0-1.016-.21-1.901-.63-2.656a4.281 4.281 0 0 0-1.79-1.742c-.773-.407-1.667-.61-2.68-.61-1.027 0-1.93.203-2.71.61-.78.406-1.38.986-1.8 1.742-.42.755-.63 1.64-.63 2.656 0 1.015.21 1.9.63 2.656a4.267 4.267 0 0 0 1.8 1.742c.78.406 1.683.61 2.71.61zm-.02-1.866c-.84 0-1.483-.263-1.93-.79-.447-.527-.67-1.31-.67-2.351 0-1.028.227-1.812.68-2.352.453-.54 1.1-.809 1.94-.809.827 0 1.467.27 1.92.81.453.539.68 1.323.68 2.35 0 1.042-.223 1.825-.67 2.352-.447.527-1.097.79-1.95.79zm10.16 1.714V6.931h-2.48v14.013h2.48zm7.9.152c.72 0 1.43-.11 2.13-.333.7-.222 1.29-.517 1.77-.885l-.72-1.638c-.947.686-1.973 1.028-3.08 1.028-.96 0-1.683-.244-2.17-.733-.487-.488-.757-1.247-.81-2.275h6.96v-.362c0-1.497-.403-2.675-1.21-3.532-.807-.856-1.903-1.285-3.29-1.285-.947 0-1.793.213-2.54.638a4.451 4.451 0 0 0-1.74 1.78c-.413.762-.62 1.631-.62 2.609 0 1.548.473 2.767 1.42 3.656.947.888 2.247 1.332 3.9 1.332zm1.9-6.112H90c.12-.71.39-1.253.81-1.627.42-.375.963-.562 1.63-.562.667 0 1.19.184 1.57.552.38.368.61.914.69 1.637zm7.18 5.96v-5.445c0-.762.233-1.374.7-1.838.467-.463 1.08-.695 1.84-.695.64 0 1.113.175 1.42.524.307.349.46.904.46 1.666v5.788h2.5v-5.902c0-2.64-1.207-3.96-3.62-3.96-.747 0-1.417.158-2.01.475a3.57 3.57 0 0 0-1.41 1.352l-.18-1.58h-2.34c.107.8.16 1.707.16 2.723v6.892h2.48zm10.94 2.551c.573-.545.98-1.091 1.22-1.637s.36-1.155.36-1.828v-1.752h-2.8v2.666h1.28c-.093.546-.453 1.136-1.08 1.77l1.02.781zm14.72-2.399c1.547 0 2.777-.342 3.69-1.028.913-.685 1.37-1.618 1.37-2.799 0-.837-.223-1.542-.67-2.113-.447-.571-1.09-.965-1.93-1.18.707-.255 1.257-.658 1.65-1.21.393-.552.597-1.202.61-1.951 0-1.092-.417-1.965-1.25-2.618-.833-.654-1.95-.98-3.35-.98a8.6 8.6 0 0 0-2.69.428c-.873.285-1.597.67-2.17 1.151l.86 1.79c1.28-.94 2.56-1.409 3.84-1.409.72 0 1.28.165 1.68.495.4.33.6.806.6 1.428 0 1.333-.92 2-2.76 2h-1.54v1.96h1.88c.947 0 1.647.162 2.1.486.453.324.68.828.68 1.514 0 .698-.223 1.218-.67 1.561-.447.343-1.123.514-2.03.514-1.387 0-2.713-.47-3.98-1.409l-.88 1.79c.573.495 1.303.882 2.19 1.161.887.28 1.81.42 2.77.42zm16.38-.152v-5.37c0-.812.2-1.45.6-1.913.4-.463.947-.695 1.64-.695.587 0 1.017.172 1.29.514.273.343.41.889.41 1.638v5.826h2.5v-5.37c0-.812.197-1.45.59-1.913.393-.463.937-.695 1.63-.695.6 0 1.03.168 1.29.505.26.336.39.885.39 1.647v5.826h2.5v-5.902c0-1.333-.28-2.326-.84-2.98-.56-.654-1.413-.98-2.56-.98-.733 0-1.397.161-1.99.485a3.4 3.4 0 0 0-1.37 1.342c-.467-1.218-1.473-1.828-3.02-1.828-.72 0-1.357.153-1.91.457a3.06 3.06 0 0 0-1.27 1.314l-.18-1.523h-2.34c.107.8.16 1.707.16 2.723v6.892h2.48zm20.66.152c.72 0 1.43-.11 2.13-.333.7-.222 1.29-.517 1.77-.885l-.72-1.638c-.947.686-1.973 1.028-3.08 1.028-.96 0-1.683-.244-2.17-.733-.487-.488-.757-1.247-.81-2.275h6.96v-.362c0-1.497-.403-2.675-1.21-3.532-.807-.856-1.903-1.285-3.29-1.285-.947 0-1.793.213-2.54.638a4.451 4.451 0 0 0-1.74 1.78c-.413.762-.62 1.631-.62 2.609 0 1.548.473 2.767 1.42 3.656.947.888 2.247 1.332 3.9 1.332zm1.9-6.112h-4.7c.12-.71.39-1.253.81-1.627.42-.375.963-.562 1.63-.562.667 0 1.19.184 1.57.552.38.368.61.914.69 1.637zm8.8 6.093c.627 0 1.16-.076 1.6-.228v-1.885a3.7 3.7 0 0 1-1 .152c-1.107 0-1.66-.565-1.66-1.694v-4.303h2.68v-1.79h-2.68V8.187l-2.5.8v2.342h-1.94v1.79h1.94v4.417c0 1.142.307 2.018.92 2.627.613.61 1.493.914 2.64.914zm8.5.02c.72 0 1.43-.112 2.13-.334.7-.222 1.29-.517 1.77-.885l-.72-1.638c-.947.686-1.973 1.028-3.08 1.028-.96 0-1.683-.244-2.17-.733-.487-.488-.757-1.247-.81-2.275h6.96v-.362c0-1.497-.403-2.675-1.21-3.532-.807-.856-1.903-1.285-3.29-1.285-.947 0-1.793.213-2.54.638a4.451 4.451 0 0 0-1.74 1.78c-.413.762-.62 1.631-.62 2.609 0 1.548.473 2.767 1.42 3.656.947.888 2.247 1.332 3.9 1.332zm1.9-6.113h-4.7c.12-.71.39-1.253.81-1.627.42-.375.963-.562 1.63-.562.667 0 1.19.184 1.57.552.38.368.61.914.69 1.637zm7.18 5.96v-5.198c0-.774.223-1.396.67-1.866.447-.47 1.097-.704 1.95-.704.453 0 .893.082 1.32.247l.02-2.17a2.938 2.938 0 0 0-1-.153c-.693 0-1.313.165-1.86.495-.547.33-.947.806-1.2 1.428l-.2-1.694h-2.34c.107.8.16 1.707.16 2.723v6.892h2.48z"/>
        <path fill="#129D51" d="M466.28 103.92c1.067 0 1.997-.158 2.79-.476.793-.317 1.403-.764 1.83-1.342.427-.578.64-1.247.64-2.009 0-.787-.233-1.418-.7-1.894-.467-.476-1.05-.832-1.75-1.066-.7-.235-1.663-.492-2.89-.772-1.133-.253-1.973-.552-2.52-.894-.547-.343-.82-.857-.82-1.543 0-.787.313-1.405.94-1.856.627-.45 1.493-.676 2.6-.676.813 0 1.563.127 2.25.38.687.255 1.363.655 2.03 1.2l.64-1.2c-.587-.558-1.307-.983-2.16-1.275a8.472 8.472 0 0 0-2.76-.438c-1.04 0-1.95.165-2.73.495-.78.33-1.383.79-1.81 1.38-.427.59-.64 1.273-.64 2.047 0 .813.22 1.47.66 1.971.44.501 1.013.885 1.72 1.152.707.267 1.607.514 2.7.743.813.177 1.463.349 1.95.514.487.165.88.39 1.18.676.3.285.45.656.45 1.113 0 .775-.31 1.374-.93 1.8-.62.425-1.503.638-2.65.638-.973 0-1.827-.121-2.56-.362-.733-.241-1.453-.648-2.16-1.219l-.62 1.2c1.32 1.142 3.093 1.713 5.32 1.713zm9.76-.152v-5.484c0-.926.28-1.662.84-2.208.56-.546 1.307-.819 2.24-.819.8 0 1.387.206 1.76.619.373.412.56 1.063.56 1.952v5.94h1.62v-6.017c0-2.526-1.207-3.789-3.62-3.789-.787 0-1.487.169-2.1.505a3.237 3.237 0 0 0-1.38 1.437l-.16-1.713h-1.54c.107.8.16 1.694.16 2.685v6.892h1.62zm12.3-11.881v-1.752h-1.98v1.752h1.98zm-.2 11.881v-9.577h-1.62v9.577h1.62zm5.34-11.881v-1.752h-1.98v1.752h1.98zm-3.14 16.07c.92 0 1.643-.257 2.17-.771.527-.514.79-1.273.79-2.276V94.19h-1.62v10.53c0 1.27-.56 1.904-1.68 1.904-.293 0-.62-.05-.98-.152v1.313c.44.115.88.172 1.32.172zm11-4.189l4.34-9.558h-1.62l-3.44 7.882-3.4-7.882h-1.7l4.28 9.558h1.54zm8.14 0V89.755h-1.62v14.013h1.62zm7.4.133c.787 0 1.477-.162 2.07-.485a3.097 3.097 0 0 0 1.33-1.38v1.732h1.6v-9.577h-1.6v1.656a3.286 3.286 0 0 0-1.34-1.39c-.587-.33-1.273-.495-2.06-.495-.88 0-1.657.21-2.33.629-.673.419-1.197 1.006-1.57 1.76-.373.756-.56 1.629-.56 2.619 0 .99.183 1.856.55 2.599a4.059 4.059 0 0 0 1.56 1.723c.673.406 1.457.61 2.35.61zm.32-1.275c-1 0-1.773-.318-2.32-.952-.547-.635-.82-1.536-.82-2.704 0-1.168.277-2.079.83-2.732.553-.654 1.323-.98 2.31-.98.987 0 1.747.316 2.28.951.533.635.8 1.542.8 2.723 0 1.18-.267 2.091-.8 2.732s-1.293.962-2.28.962zm9.84 1.142V99.16l5.16 4.608h2.12l-5.52-4.97 5.04-4.588h-2.06l-4.74 4.38v-8.835h-1.62v14.013h1.62zm24.06-6.797v-1.2h-9.84v1.2h9.84zm0 3.846v-1.2h-9.84v1.2h9.84zm12.96 3.084c1.44 0 2.58-.34 3.42-1.018.84-.68 1.26-1.61 1.26-2.79 0-.85-.22-1.555-.66-2.113-.44-.559-1.08-.952-1.92-1.18.707-.255 1.26-.673 1.66-1.257.4-.584.6-1.263.6-2.038 0-1.053-.383-1.89-1.15-2.513-.767-.622-1.79-.933-3.07-.933-.907 0-1.777.15-2.61.448-.833.298-1.537.707-2.11 1.228l.62 1.2c1.333-1.042 2.68-1.562 4.04-1.562.84 0 1.49.197 1.95.59.46.394.69.959.69 1.695 0 .825-.28 1.46-.84 1.904-.56.444-1.367.666-2.42.666h-1.32v1.314h1.64c2.187 0 3.28.831 3.28 2.494 0 .838-.263 1.473-.79 1.904-.527.432-1.297.648-2.31.648-1.427 0-2.8-.52-4.12-1.562l-.64 1.2c.587.533 1.303.945 2.15 1.237.847.292 1.73.438 2.65.438zm12.54.02c1.627 0 2.863-.59 3.71-1.771.847-1.18 1.27-2.907 1.27-5.18 0-2.259-.423-3.975-1.27-5.15-.847-1.174-2.083-1.76-3.71-1.76-1.627 0-2.863.586-3.71 1.76-.847 1.175-1.27 2.898-1.27 5.17s.423 3.995 1.27 5.17c.847 1.173 2.083 1.76 3.71 1.76zm0-1.314c-1.133 0-1.97-.46-2.51-1.38-.54-.921-.81-2.34-.81-4.256 0-1.917.27-3.326.81-4.227.54-.901 1.377-1.352 2.51-1.352 1.147 0 1.987.45 2.52 1.352.533.901.8 2.31.8 4.227 0 1.93-.27 3.35-.81 4.265-.54.914-1.377 1.37-2.51 1.37zm12.4 1.313c1.627 0 2.863-.59 3.71-1.77.847-1.18 1.27-2.907 1.27-5.18 0-2.259-.423-3.975-1.27-5.15-.847-1.174-2.083-1.76-3.71-1.76-1.627 0-2.863.586-3.71 1.76-.847 1.175-1.27 2.898-1.27 5.17s.423 3.995 1.27 5.17c.847 1.173 2.083 1.76 3.71 1.76zm0-1.313c-1.133 0-1.97-.46-2.51-1.38-.54-.921-.81-2.34-.81-4.256 0-1.917.27-3.326.81-4.227.54-.901 1.377-1.352 2.51-1.352 1.147 0 1.987.45 2.52 1.352.533.901.8 2.31.8 4.227 0 1.93-.27 3.35-.81 4.265-.54.914-1.377 1.37-2.51 1.37zm12.4 1.313c1.627 0 2.863-.59 3.71-1.77.847-1.18 1.27-2.907 1.27-5.18 0-2.259-.423-3.975-1.27-5.15-.847-1.174-2.083-1.76-3.71-1.76-1.627 0-2.863.586-3.71 1.76-.847 1.175-1.27 2.898-1.27 5.17s.423 3.995 1.27 5.17c.847 1.173 2.083 1.76 3.71 1.76zm0-1.313c-1.133 0-1.97-.46-2.51-1.38-.54-.921-.81-2.34-.81-4.256 0-1.917.27-3.326.81-4.227.54-.901 1.377-1.352 2.51-1.352 1.147 0 1.987.45 2.52 1.352.533.901.8 2.31.8 4.227 0 1.93-.27 3.35-.81 4.265-.54.914-1.377 1.37-2.51 1.37zm15.2 1.161v-5.464c0-.94.243-1.682.73-2.228.487-.546 1.157-.819 2.01-.819.733 0 1.267.206 1.6.619.333.412.5 1.063.5 1.952v5.94h1.62v-5.464c0-.94.24-1.682.72-2.228.48-.546 1.147-.819 2-.819.733 0 1.263.203 1.59.61.327.406.49 1.06.49 1.96v5.941h1.62v-6.017c0-2.526-1.113-3.789-3.34-3.789-.747 0-1.417.169-2.01.505a3.39 3.39 0 0 0-1.35 1.361c-.24-.634-.613-1.104-1.12-1.409-.507-.304-1.16-.457-1.96-.457-.733 0-1.377.165-1.93.495-.553.33-.97.8-1.25 1.41l-.16-1.676h-1.54c.107.8.16 1.694.16 2.685v6.892h1.62zm17.98 0v-5.464c0-.94.243-1.682.73-2.228.487-.546 1.157-.819 2.01-.819.733 0 1.267.206 1.6.619.333.412.5 1.063.5 1.952v5.94h1.62v-5.464c0-.94.24-1.682.72-2.228.48-.546 1.147-.819 2-.819.733 0 1.263.203 1.59.61.327.406.49 1.06.49 1.96v5.941h1.62v-6.017c0-2.526-1.113-3.789-3.34-3.789-.747 0-1.417.169-2.01.505a3.39 3.39 0 0 0-1.35 1.361c-.24-.634-.613-1.104-1.12-1.409-.507-.304-1.16-.457-1.96-.457-.733 0-1.377.165-1.93.495-.553.33-.97.8-1.25 1.41l-.16-1.676h-1.54c.107.8.16 1.694.16 2.685v6.892h1.62zM450.5 95.676v.952h-28.969l-12.506 9.224 2.45 3.01-9.87 1.862 4.358-8.634 2.45 3.009 12.642-9.323.135-.1z"/>
    </g>
</svg>
